<?xml version="1.0" standalone="no"?>
<!DOCTYPE svg PUBLIC "-//W3C//DTD SVG 20010904//EN"
 "http://www.w3.org/TR/2001/REC-SVG-20010904/DTD/svg10.dtd">
<svg version="1.0" xmlns="http://www.w3.org/2000/svg"
 width="512.000000pt" height="553.000000pt" viewBox="0 0 512.000000 553.000000"
 preserveAspectRatio="xMidYMid meet">

<g transform="translate(0.000000,553.000000) scale(0.100000,-0.100000)"
fill="#000000" stroke="none">
<path d="M1314 5478 c22 -48 255 -560 320 -703 16 -33 64 -139 108 -235 134
-294 279 -610 428 -933 l141 -309 -14 -36 c-13 -31 -161 -352 -339 -734 -23
-49 -44 -88 -47 -88 -3 0 -39 73 -80 163 -41 89 -141 306 -221 482 -81 176
-159 345 -172 375 -14 30 -53 114 -86 185 -33 72 -120 263 -195 425 -348 760
-483 1054 -534 1165 -30 66 -72 157 -93 203 l-39 82 -244 0 -245 0 110 -237
c123 -267 109 -237 251 -548 98 -215 160 -349 527 -1150 78 -170 188 -411 245
-535 121 -266 269 -588 430 -940 65 -140 164 -358 222 -485 57 -126 107 -233
110 -238 3 -5 24 33 47 85 43 93 53 114 161 343 31 66 96 206 145 310 48 105
111 240 140 300 28 61 62 133 75 160 13 28 93 199 178 380 85 182 182 389 215
460 33 72 79 171 102 220 81 173 263 561 325 695 34 74 87 187 117 250 30 63
94 202 143 308 l88 192 399 0 c219 0 398 -4 398 -9 0 -8 -34 -85 -97 -221 -20
-41 -88 -190 -153 -330 -65 -140 -139 -300 -165 -355 -26 -55 -89 -190 -140
-300 -93 -201 -133 -285 -220 -470 -55 -117 -200 -428 -382 -820 -72 -154
-156 -333 -187 -398 -31 -65 -56 -120 -56 -122 0 -2 -23 -52 -51 -112 -28 -59
-132 -283 -231 -498 -99 -214 -182 -393 -185 -397 -2 -5 103 -8 234 -8 l238 0
24 53 c13 28 80 171 149 317 68 146 132 283 142 305 10 22 54 117 98 210 114
243 591 1266 820 1760 239 515 386 831 442 950 23 50 97 209 165 355 68 146
150 322 183 392 33 69 59 128 57 130 -2 2 -402 2 -889 0 l-885 -2 -7 -22 c-3
-12 -27 -64 -51 -117 -82 -174 -114 -244 -204 -438 -48 -106 -119 -259 -158
-340 -38 -81 -87 -186 -108 -233 -173 -375 -247 -530 -252 -530 -4 0 -14 17
-23 38 -8 20 -125 273 -257 562 -133 289 -248 539 -256 555 -7 17 -58 127
-113 245 -55 118 -107 232 -115 253 l-16 37 -245 0 -246 0 24 -52z"/>
</g>
</svg>
