<svg id="svg" version="1.1" xmlns="http://www.w3.org/2000/svg" xmlns:xlink="http://www.w3.org/1999/xlink" width="400" height="400" viewBox="0, 0, 400,400"><g id="svgg"><path id="path0" d="M168.369 27.500 C 168.352 27.665,168.307 28.607,168.269 29.593 C 168.184 31.807,167.179 32.422,163.000 32.818 L 160.200 33.083 162.713 33.141 C 165.436 33.205,167.875 34.009,168.241 34.964 C 168.368 35.293,169.043 35.900,169.741 36.312 C 170.820 36.949,171.152 37.550,171.951 40.314 C 172.610 42.596,173.163 43.746,173.803 44.166 C 174.422 44.571,175.076 45.869,175.831 48.190 C 176.719 50.919,177.217 51.823,178.272 52.628 C 179.202 53.337,179.735 54.182,180.055 55.452 C 180.331 56.547,181.190 58.060,182.226 59.273 C 183.355 60.596,184.102 61.958,184.415 63.264 C 184.677 64.355,185.307 65.741,185.815 66.345 C 187.060 67.824,188.800 71.148,188.800 72.046 C 188.800 72.445,189.316 73.363,189.946 74.086 C 190.577 74.809,191.678 76.750,192.392 78.400 C 193.107 80.050,194.114 81.760,194.631 82.200 C 195.148 82.640,196.057 84.170,196.652 85.600 C 197.247 87.030,198.144 88.650,198.644 89.200 C 199.145 89.750,200.084 91.503,200.732 93.095 C 201.379 94.688,202.433 96.587,203.073 97.317 C 203.714 98.047,204.472 99.264,204.757 100.022 C 205.947 103.184,206.526 104.363,206.974 104.535 C 207.235 104.635,208.157 106.120,209.024 107.835 C 209.891 109.550,210.993 111.348,211.473 111.831 C 211.953 112.314,212.827 114.254,213.416 116.141 C 214.143 118.472,214.716 119.647,215.204 119.801 C 215.610 119.930,216.402 121.157,217.025 122.623 C 217.631 124.050,218.566 125.798,219.102 126.509 C 219.638 127.219,220.669 129.081,221.392 130.648 C 222.115 132.214,222.912 133.622,223.162 133.777 C 223.413 133.932,224.407 135.724,225.371 137.760 C 226.335 139.795,227.861 142.665,228.762 144.138 C 229.663 145.610,230.400 146.977,230.400 147.176 C 230.400 147.376,230.841 148.063,231.380 148.703 C 231.919 149.344,232.973 151.214,233.723 152.859 C 234.473 154.504,235.536 156.299,236.085 156.849 C 236.635 157.398,237.473 159.015,237.947 160.442 C 238.422 161.868,239.517 163.976,240.381 165.125 C 241.244 166.274,242.078 167.617,242.234 168.107 C 242.390 168.598,242.985 169.720,243.557 170.600 C 244.129 171.480,245.408 173.767,246.399 175.682 C 250.881 184.345,252.127 186.645,252.676 187.268 C 253.000 187.635,253.785 189.035,254.421 190.379 C 255.057 191.723,256.017 193.403,256.554 194.112 C 257.091 194.820,257.984 196.430,258.538 197.689 C 259.092 198.947,260.070 200.747,260.711 201.689 C 261.352 202.630,262.211 204.286,262.619 205.369 C 263.027 206.452,264.029 208.110,264.846 209.053 C 265.663 209.997,266.719 211.811,267.194 213.084 C 267.669 214.358,268.389 215.760,268.794 216.200 C 269.198 216.640,270.269 218.520,271.172 220.377 C 272.076 222.234,273.054 224.034,273.345 224.377 C 273.637 224.720,274.421 226.186,275.086 227.635 C 275.752 229.084,276.950 231.219,277.748 232.379 C 278.547 233.540,279.200 234.721,279.200 235.005 C 279.200 235.288,279.854 236.483,280.654 237.660 C 281.453 238.837,282.534 240.700,283.057 241.800 L 284.006 243.800 282.797 244.900 L 281.587 246.000 258.526 246.000 L 235.465 246.000 233.375 244.820 C 232.111 244.108,230.476 243.566,229.242 243.451 C 226.833 243.227,226.599 243.626,228.700 244.372 C 230.302 244.941,233.809 247.281,234.800 248.443 C 235.340 249.075,236.627 249.169,247.600 249.377 C 262.002 249.649,266.896 249.920,266.582 250.430 C 266.456 250.633,266.753 250.800,267.243 250.800 C 267.733 250.800,268.022 250.911,267.886 251.048 C 267.276 251.657,268.892 252.402,270.871 252.423 C 274.374 252.460,275.709 253.114,276.338 255.100 L 276.876 256.800 281.589 256.800 C 286.803 256.800,286.954 256.866,287.419 259.355 C 287.865 261.744,288.771 262.400,291.619 262.400 C 294.157 262.400,295.987 263.550,296.009 265.158 C 296.014 265.511,296.365 266.565,296.789 267.500 L 297.561 269.200 302.007 269.200 C 307.163 269.200,307.869 269.462,308.228 271.505 C 308.714 274.281,309.312 274.800,312.022 274.800 C 317.753 274.800,320.721 279.033,315.984 280.452 C 313.786 281.111,314.004 281.496,316.700 281.720 C 319.147 281.922,324.062 283.498,325.800 284.637 L 326.848 285.323 324.924 286.362 L 323.000 287.400 310.171 287.600 C 297.258 287.801,296.000 287.954,296.000 289.323 C 296.000 289.628,353.807 290.116,356.092 289.831 C 358.224 289.564,358.239 289.553,358.772 287.748 C 359.067 286.750,359.554 285.839,359.854 285.724 C 360.207 285.589,360.381 284.928,360.347 283.857 L 360.295 282.200 360.000 283.600 C 359.838 284.370,359.682 284.797,359.653 284.549 C 359.618 284.255,358.975 284.169,357.808 284.300 C 355.843 284.522,354.374 283.847,353.576 282.356 C 352.978 281.238,354.108 278.146,355.248 277.785 C 356.580 277.362,355.847 276.628,353.970 276.505 C 349.773 276.231,347.586 274.297,348.572 271.730 C 348.726 271.329,348.853 270.910,348.854 270.800 C 348.860 270.353,350.258 269.086,351.100 268.764 C 351.764 268.510,352.000 268.097,352.000 267.186 C 352.000 266.508,351.837 266.054,351.637 266.177 C 351.438 266.300,351.377 266.010,351.502 265.533 C 351.680 264.850,351.590 264.718,351.077 264.915 C 350.719 265.053,350.319 264.993,350.189 264.783 C 350.059 264.572,349.513 264.400,348.976 264.400 C 348.061 264.400,347.997 264.257,347.947 262.100 C 347.903 260.162,347.855 260.020,347.642 261.200 C 347.444 262.297,347.326 262.443,347.097 261.875 C 346.937 261.476,346.640 261.252,346.437 261.377 C 346.234 261.502,346.004 261.413,345.926 261.178 C 345.827 260.882,345.457 260.874,344.726 261.152 C 343.152 261.751,342.776 260.611,343.388 257.097 C 343.580 255.997,343.482 255.425,343.025 254.968 C 342.623 254.566,342.400 254.513,342.400 254.820 C 342.400 255.173,342.236 255.162,341.774 254.778 C 341.430 254.493,340.688 254.239,340.126 254.214 C 339.543 254.189,338.691 253.689,338.142 253.051 L 337.180 251.932 338.418 249.768 C 339.854 247.258,339.887 245.732,338.500 245.925 C 338.005 245.994,337.600 245.865,337.600 245.638 C 337.600 245.411,337.330 245.329,336.999 245.456 C 335.971 245.850,334.393 245.221,333.945 244.240 C 333.491 243.243,334.835 239.326,335.491 239.734 C 335.661 239.840,335.716 238.368,335.614 236.463 C 335.487 234.093,335.384 233.568,335.289 234.800 C 335.116 237.028,334.947 237.202,332.793 237.365 C 330.214 237.561,328.930 236.220,329.770 234.209 C 330.094 233.434,330.250 232.800,330.118 232.800 C 329.985 232.800,330.184 232.460,330.560 232.044 C 331.044 231.509,331.217 230.713,331.154 229.316 L 331.064 227.342 329.242 227.248 C 327.014 227.133,327.252 227.468,327.135 224.283 C 327.080 222.808,326.873 221.600,326.675 221.600 C 326.477 221.600,326.424 221.330,326.557 221.000 C 326.691 220.670,326.904 220.144,327.031 219.832 C 327.200 219.414,326.988 219.294,326.231 219.377 C 325.664 219.439,325.200 219.335,325.200 219.145 C 325.200 218.955,325.065 218.821,324.900 218.847 C 323.450 219.076,322.874 218.719,322.634 217.440 C 322.328 215.808,321.738 215.268,320.400 215.395 C 318.576 215.569,317.937 214.940,318.251 213.278 C 318.404 212.465,318.531 211.575,318.532 211.300 C 318.533 211.025,318.674 210.800,318.846 210.800 C 319.018 210.800,318.925 210.127,318.640 209.305 C 318.145 207.874,318.044 207.809,316.304 207.805 C 315.100 207.802,314.209 207.549,313.665 207.058 L 312.845 206.316 313.643 204.292 C 314.560 201.965,314.538 199.713,313.600 199.955 C 309.666 200.973,307.950 198.555,309.816 194.623 C 310.486 193.210,310.475 189.721,309.800 189.724 C 309.580 189.725,308.617 189.698,307.660 189.663 L 305.921 189.600 306.009 185.900 C 306.118 181.331,306.113 181.285,305.500 181.307 C 305.225 181.318,304.325 181.298,303.500 181.263 L 302.000 181.200 302.001 179.100 L 302.001 177.000 299.863 177.133 L 297.726 177.267 297.836 172.733 C 297.904 169.934,297.818 168.582,297.613 169.200 C 297.430 169.750,297.262 169.975,297.240 169.700 C 297.218 169.425,296.919 169.200,296.576 169.200 C 296.233 169.200,296.037 169.063,296.140 168.897 C 296.243 168.730,295.759 168.595,295.064 168.597 C 293.848 168.600,293.796 168.531,293.690 166.800 C 293.610 165.485,293.689 165.162,293.984 165.600 C 294.326 166.108,294.389 166.086,294.394 165.453 C 294.398 164.905,294.612 164.762,295.200 164.916 C 295.640 165.031,296.000 164.962,296.000 164.763 C 296.000 164.563,295.460 164.400,294.800 164.400 C 293.640 164.400,293.599 164.337,293.568 162.500 C 293.551 161.455,293.446 160.825,293.335 161.100 C 293.045 161.819,289.424 161.752,288.813 161.016 C 288.433 160.558,288.434 160.017,288.817 158.516 C 289.085 157.462,289.326 155.610,289.352 154.400 L 289.400 152.200 287.500 152.217 L 285.600 152.234 285.553 149.217 C 285.475 144.251,285.290 143.800,283.328 143.800 C 281.157 143.800,281.235 143.957,281.168 139.473 C 281.128 136.833,280.964 135.603,280.655 135.640 C 278.049 135.953,277.200 135.607,277.200 134.233 C 277.200 132.392,276.850 131.600,276.037 131.600 C 275.665 131.600,275.144 131.384,274.880 131.120 C 274.552 130.792,274.400 130.780,274.400 131.083 C 274.400 131.328,274.044 131.432,273.600 131.316 C 272.883 131.128,272.799 130.768,272.795 127.853 C 272.788 123.929,272.533 122.774,271.741 123.078 C 271.422 123.200,270.900 122.963,270.580 122.550 C 270.199 122.059,270.071 122.012,270.209 122.414 C 270.350 122.824,270.150 123.049,269.610 123.089 C 268.702 123.158,268.445 121.810,269.300 121.465 C 269.700 121.304,269.700 121.257,269.300 121.232 C 269.025 121.214,268.800 120.876,268.800 120.480 C 268.800 120.084,269.025 119.518,269.300 119.221 C 269.700 118.790,269.700 118.739,269.300 118.965 C 268.926 119.176,268.800 118.692,268.800 117.052 L 268.800 114.858 266.614 114.584 L 264.428 114.311 264.314 110.468 L 264.200 106.624 262.400 106.476 C 260.185 106.293,260.447 106.806,260.368 102.484 C 260.324 100.064,260.146 98.798,259.850 98.794 C 259.603 98.791,259.670 98.602,260.000 98.376 C 260.499 98.034,260.465 97.975,259.800 98.028 C 259.360 98.063,258.415 98.071,257.700 98.046 L 256.400 98.000 256.400 95.826 C 256.400 94.630,256.229 93.202,256.020 92.653 C 255.762 91.974,255.779 91.607,256.073 91.509 C 256.717 91.294,256.057 89.600,255.330 89.600 C 254.957 89.600,254.802 89.828,254.937 90.180 C 255.085 90.567,254.967 90.685,254.580 90.537 C 254.261 90.414,254.000 90.154,254.000 89.957 C 254.000 89.761,253.865 89.621,253.700 89.647 C 252.231 89.879,252.000 89.577,252.000 87.424 C 252.000 85.347,251.543 84.322,251.004 85.193 C 250.725 85.645,248.286 85.753,247.866 85.332 C 247.719 85.185,247.897 84.735,248.261 84.332 C 248.657 83.895,248.738 83.600,248.462 83.600 C 248.208 83.600,248.021 83.465,248.047 83.300 C 248.073 83.135,248.073 81.695,248.047 80.100 L 248.000 77.200 245.800 77.200 L 243.600 77.200 243.600 73.000 L 243.600 68.800 241.600 68.800 L 239.600 68.800 239.554 65.700 C 239.529 63.995,239.535 62.313,239.569 61.961 C 239.640 61.212,238.689 60.320,237.930 60.423 C 235.699 60.725,235.600 60.591,235.600 57.254 C 235.600 53.392,234.732 51.867,232.651 52.075 C 231.422 52.198,231.398 52.166,231.278 50.302 C 231.178 48.742,229.600 46.422,229.600 47.835 C 229.600 47.980,229.358 47.897,229.063 47.652 C 228.768 47.407,228.432 47.302,228.316 47.417 C 228.200 47.533,228.193 47.171,228.299 46.614 C 228.445 45.850,228.325 45.600,227.813 45.600 C 227.438 45.600,227.216 45.376,227.317 45.100 C 227.417 44.825,227.702 44.645,227.950 44.700 C 228.610 44.847,228.500 44.124,227.823 43.864 C 227.458 43.724,227.200 42.937,227.123 41.721 L 227.000 39.800 224.900 39.679 L 222.800 39.558 222.800 35.379 L 222.800 31.200 220.800 31.200 L 218.800 31.200 218.737 29.700 C 218.702 28.875,218.682 27.975,218.693 27.700 C 218.713 27.137,168.427 26.937,168.369 27.500 M152.228 41.155 C 152.011 41.505,152.435 41.956,153.600 42.615 C 154.097 42.896,154.115 42.849,153.703 42.340 C 153.430 42.003,153.335 41.598,153.491 41.442 C 153.648 41.286,153.437 41.288,153.022 41.447 C 152.498 41.648,152.357 41.594,152.558 41.268 C 152.717 41.011,152.757 40.800,152.647 40.800 C 152.537 40.800,152.349 40.960,152.228 41.155 M154.611 42.418 C 154.753 42.647,154.631 43.142,154.341 43.518 C 153.868 44.130,153.898 44.128,154.639 43.499 C 155.093 43.114,155.624 42.934,155.819 43.099 C 156.014 43.265,155.933 43.085,155.638 42.700 C 155.069 41.957,154.174 41.710,154.611 42.418 M229.084 44.400 C 228.969 44.839,229.057 45.312,229.280 45.450 C 229.534 45.607,229.483 45.844,229.143 46.088 C 228.733 46.381,228.775 46.419,229.316 46.244 C 229.835 46.076,230.000 46.199,229.916 46.692 C 229.850 47.080,230.100 47.433,230.500 47.515 C 230.965 47.610,231.198 47.414,231.194 46.929 C 231.189 46.312,231.128 46.292,230.800 46.800 C 230.469 47.313,230.411 47.298,230.406 46.700 C 230.403 46.315,230.625 45.997,230.900 45.994 C 231.268 45.989,231.257 45.897,230.857 45.644 C 230.461 45.393,230.439 45.223,230.777 45.014 C 231.125 44.799,231.124 44.590,230.770 44.164 C 230.102 43.359,229.328 43.467,229.084 44.400 M148.000 48.380 C 148.000 48.589,148.315 48.944,148.700 49.168 C 149.085 49.392,149.194 49.581,148.943 49.588 C 148.128 49.610,148.047 50.633,148.856 50.694 C 149.371 50.733,149.587 50.529,149.512 50.076 C 149.438 49.632,149.632 49.438,150.076 49.512 C 150.529 49.587,150.733 49.371,150.694 48.856 C 150.633 48.047,149.610 48.128,149.588 48.943 C 149.581 49.194,149.392 49.085,149.168 48.700 C 148.732 47.952,148.000 47.751,148.000 48.380 M143.701 61.000 C 143.705 61.880,143.787 62.193,143.883 61.695 C 143.979 61.198,143.975 60.478,143.875 60.095 C 143.775 59.713,143.696 60.120,143.701 61.000 M250.097 81.399 C 250.260 81.579,250.238 81.923,250.048 82.163 C 249.831 82.438,250.120 82.938,250.827 83.510 C 251.878 84.361,251.948 84.371,251.894 83.654 C 251.857 83.161,251.616 82.955,251.218 83.077 C 250.800 83.204,250.851 83.061,251.376 82.633 C 251.804 82.285,251.975 82.000,251.756 82.000 C 251.538 82.000,251.118 82.225,250.821 82.500 C 250.382 82.908,250.327 82.873,250.524 82.313 C 250.656 81.935,250.548 81.501,250.283 81.349 C 250.017 81.196,249.933 81.219,250.097 81.399 M123.300 93.865 C 122.604 94.146,122.673 94.800,123.400 94.800 C 123.730 94.800,124.000 94.609,124.000 94.376 C 124.000 94.143,124.180 94.064,124.400 94.200 C 124.620 94.336,124.800 94.257,124.800 94.024 C 124.800 93.584,124.164 93.516,123.300 93.865 M126.617 94.027 C 126.773 94.280,126.596 94.402,126.182 94.327 C 125.797 94.257,125.406 94.470,125.311 94.800 C 125.209 95.157,125.273 95.238,125.470 95.000 C 125.651 94.780,126.055 94.600,126.367 94.600 C 126.678 94.600,127.008 94.375,127.100 94.100 C 127.192 93.825,127.061 93.600,126.810 93.600 C 126.558 93.600,126.471 93.792,126.617 94.027 M123.432 95.622 C 123.009 96.048,122.755 96.489,122.868 96.601 C 123.092 96.826,124.800 95.458,124.800 95.053 C 124.800 94.592,124.210 94.837,123.432 95.622 M114.540 115.600 C 114.540 117.470,114.609 118.235,114.693 117.300 C 114.777 116.365,114.777 114.835,114.693 113.900 C 114.609 112.965,114.540 113.730,114.540 115.600 M111.092 125.319 C 111.372 127.803,110.841 128.400,108.351 128.400 C 107.278 128.400,106.400 128.580,106.400 128.800 C 106.400 129.020,107.269 129.200,108.330 129.200 C 110.892 129.200,112.223 127.944,111.793 125.933 C 111.319 123.715,110.867 123.319,111.092 125.319 M163.505 124.829 C 163.123 125.052,162.616 125.632,162.378 126.117 L 161.946 127.000 162.673 126.118 C 163.073 125.632,163.850 125.059,164.400 124.843 C 164.950 124.627,165.130 124.445,164.800 124.438 C 164.470 124.430,163.887 124.607,163.505 124.829 M166.132 125.346 C 166.535 125.670,167.130 126.265,167.454 126.668 C 168.003 127.349,168.014 127.338,167.613 126.509 C 167.376 126.019,166.781 125.424,166.291 125.187 C 165.462 124.786,165.451 124.797,166.132 125.346 M169.259 129.087 C 170.061 129.981,170.843 131.105,170.996 131.586 C 171.148 132.067,171.359 132.374,171.464 132.269 C 171.860 131.874,170.002 128.894,168.923 128.192 C 167.911 127.535,167.944 127.623,169.259 129.087 M275.355 129.707 C 275.199 129.978,275.221 130.065,275.403 129.899 C 275.586 129.734,276.065 129.897,276.468 130.261 C 277.184 130.909,277.476 130.593,276.894 129.800 C 276.451 129.198,275.675 129.151,275.355 129.707 M103.434 131.655 C 103.542 131.830,103.264 132.203,102.816 132.483 C 102.367 132.763,102.000 133.230,102.000 133.520 C 102.000 133.810,102.180 133.936,102.400 133.800 C 102.620 133.664,102.800 133.728,102.800 133.943 C 102.800 134.158,102.610 134.397,102.377 134.474 C 102.145 134.552,102.078 134.937,102.229 135.331 C 102.388 135.745,102.748 135.952,103.084 135.823 C 103.404 135.700,104.281 135.600,105.033 135.600 L 106.400 135.600 106.400 133.500 L 106.399 131.400 104.818 131.368 C 103.949 131.351,103.326 131.480,103.434 131.655 M159.295 132.266 C 159.018 132.378,158.588 132.859,158.341 133.335 C 157.920 134.145,157.959 134.138,158.946 133.230 C 159.526 132.697,160.000 132.202,160.000 132.130 C 160.000 131.984,159.993 131.985,159.295 132.266 M172.833 136.100 C 172.925 136.155,173.540 136.650,174.200 137.200 L 175.400 138.200 174.430 137.100 C 173.897 136.495,173.282 136.000,173.064 136.000 C 172.845 136.000,172.742 136.045,172.833 136.100 M154.920 140.100 C 153.930 141.186,153.194 142.557,153.216 143.274 C 153.224 143.563,153.498 143.170,153.824 142.400 C 154.150 141.630,154.908 140.596,155.509 140.102 C 156.109 139.608,156.406 139.203,156.170 139.202 C 155.933 139.201,155.371 139.605,154.920 140.100 M98.125 141.836 C 98.160 144.190,98.304 144.307,100.885 144.060 C 102.336 143.922,102.400 143.855,102.394 142.458 C 102.385 140.427,102.043 140.066,99.936 139.871 L 98.094 139.701 98.125 141.836 M178.000 144.836 C 178.770 145.586,179.474 146.156,179.564 146.102 C 179.830 145.945,178.279 144.363,177.404 143.899 C 176.962 143.665,177.230 144.086,178.000 144.836 M151.698 146.331 C 150.861 146.862,149.198 149.315,149.225 149.978 C 149.239 150.320,149.429 150.150,149.647 149.600 C 149.866 149.050,150.609 148.015,151.300 147.300 C 152.545 146.012,152.667 145.716,151.698 146.331 M180.800 150.807 C 180.800 151.046,181.408 151.817,182.151 152.520 C 182.895 153.224,183.699 154.160,183.939 154.600 C 184.179 155.040,184.381 155.181,184.388 154.913 C 184.395 154.646,183.590 153.515,182.600 152.400 C 181.610 151.285,180.800 150.568,180.800 150.807 M93.724 153.400 C 93.726 154.720,93.801 155.212,93.890 154.493 C 93.979 153.774,93.977 152.694,93.886 152.093 C 93.795 151.492,93.722 152.080,93.724 153.400 M146.655 154.972 C 145.420 156.207,143.636 160.169,144.104 160.637 C 144.206 160.739,144.518 160.006,144.798 159.007 C 145.081 157.997,146.007 156.396,146.887 155.396 C 148.754 153.275,148.611 153.015,146.655 154.972 M186.021 159.563 C 186.560 160.282,187.314 161.349,187.698 161.935 C 188.082 162.521,188.397 162.802,188.398 162.560 C 188.400 162.020,186.243 158.997,185.548 158.568 C 185.270 158.396,185.483 158.844,186.021 159.563 M142.445 162.233 C 141.466 163.478,139.897 167.533,140.153 168.155 C 140.254 168.400,140.353 168.330,140.372 168.000 C 140.430 167.019,142.387 163.070,143.296 162.100 C 143.760 161.605,143.941 161.200,143.699 161.200 C 143.456 161.200,142.892 161.665,142.445 162.233 M190.181 167.200 C 190.810 167.970,191.652 169.320,192.053 170.200 C 192.454 171.080,192.786 171.568,192.791 171.284 C 192.807 170.375,191.313 167.832,190.158 166.800 L 189.038 165.800 190.181 167.200 M81.326 169.500 C 81.383 170.669,82.209 170.673,82.297 169.505 C 82.344 168.877,82.265 168.771,82.031 169.150 C 81.751 169.603,81.663 169.602,81.489 169.145 C 81.375 168.845,81.301 169.005,81.326 169.500 M138.705 169.426 C 137.421 170.123,136.707 171.401,135.974 174.313 C 135.583 175.865,135.103 176.684,134.164 177.400 C 133.217 178.122,132.756 178.916,132.386 180.458 C 132.053 181.848,131.392 183.083,130.400 184.171 C 128.607 186.136,127.994 187.243,128.018 188.474 C 128.031 189.178,128.163 189.042,128.568 187.907 C 128.861 187.085,129.632 185.915,130.280 185.307 C 130.951 184.677,131.935 182.953,132.561 181.311 C 133.205 179.620,134.064 178.127,134.632 177.711 C 135.295 177.226,135.853 176.111,136.390 174.200 C 137.011 171.992,137.489 171.125,138.655 170.100 C 140.297 168.656,140.304 168.558,138.705 169.426 M85.600 171.067 L 85.600 173.095 83.910 173.321 C 82.907 173.456,81.998 173.365,81.676 173.097 C 81.235 172.731,81.157 172.868,81.266 173.823 C 81.398 174.985,81.427 174.998,83.600 174.869 C 86.320 174.707,86.934 174.068,86.677 171.665 C 86.392 169.011,85.600 168.571,85.600 171.067 M192.924 174.600 C 192.926 175.920,193.001 176.412,193.090 175.693 C 193.179 174.974,193.177 173.894,193.086 173.293 C 192.995 172.692,192.922 173.280,192.924 174.600 M77.778 178.024 C 77.139 178.730,77.116 178.902,77.616 179.218 C 78.014 179.470,78.041 179.590,77.700 179.594 C 77.367 179.598,77.200 180.276,77.200 181.629 C 77.200 183.416,77.270 183.587,77.789 183.068 C 78.126 182.731,78.940 182.523,79.689 182.584 C 82.092 182.777,82.933 180.639,81.530 177.900 C 81.117 177.093,79.763 176.962,79.465 177.700 C 79.304 178.100,79.257 178.100,79.232 177.700 C 79.185 176.964,78.624 177.090,77.778 178.024 M193.724 179.800 C 193.726 181.120,193.801 181.612,193.890 180.893 C 193.979 180.174,193.977 179.094,193.886 178.493 C 193.795 177.892,193.722 178.480,193.724 179.800 M73.156 185.794 C 73.132 185.797,73.050 186.430,72.973 187.200 C 72.754 189.414,73.396 190.294,75.134 190.160 C 75.940 190.098,76.845 190.037,77.145 190.024 C 77.565 190.005,77.636 189.516,77.455 187.900 C 77.325 186.745,77.215 185.756,77.210 185.703 C 77.203 185.634,73.751 185.712,73.156 185.794 M127.600 189.870 C 127.600 190.091,126.887 191.001,126.015 191.890 C 124.856 193.072,124.243 194.177,123.737 195.995 C 123.259 197.717,122.744 198.681,122.063 199.126 C 121.064 199.781,119.524 202.788,119.032 205.045 C 118.866 205.806,118.388 206.459,117.800 206.727 C 116.697 207.230,115.954 208.555,115.185 211.391 C 114.711 213.139,113.207 215.200,112.406 215.200 C 112.012 215.200,111.296 216.882,110.986 218.533 C 110.832 219.353,110.225 220.380,109.527 221.002 C 108.143 222.235,106.821 224.908,106.809 226.500 C 106.800 227.571,105.594 229.200,104.810 229.200 C 104.237 229.200,103.122 231.513,102.602 233.782 C 102.250 235.317,101.883 235.910,100.974 236.411 C 99.775 237.072,98.076 240.699,98.024 242.710 C 98.009 243.295,97.650 243.753,97.021 243.992 C 95.799 244.456,95.000 245.679,94.400 248.000 C 94.110 249.121,93.354 250.403,92.394 251.400 C 91.546 252.280,90.735 253.540,90.591 254.200 C 89.991 256.944,89.528 257.904,88.605 258.325 C 87.522 258.818,86.003 261.471,85.995 262.884 C 85.984 264.672,85.512 265.553,84.346 265.959 C 83.057 266.408,82.277 267.870,81.572 271.157 C 81.234 272.733,80.957 273.174,80.182 273.369 C 79.088 273.643,78.362 274.891,77.603 277.800 C 77.226 279.247,76.614 280.243,75.394 281.400 C 74.072 282.655,73.649 283.388,73.436 284.800 C 73.231 286.164,72.737 287.062,71.399 288.507 C 70.228 289.772,69.549 290.916,69.382 291.907 C 68.977 294.306,68.841 294.558,67.489 295.407 C 65.895 296.408,65.203 297.807,64.913 300.619 C 64.727 302.419,64.555 302.800,63.926 302.800 C 62.465 302.800,61.326 304.502,60.794 307.481 C 60.311 310.184,60.231 310.321,58.770 310.965 C 57.396 311.571,57.206 311.844,56.803 313.786 C 56.492 315.283,56.073 316.122,55.423 316.548 C 54.054 317.445,52.909 319.535,52.585 321.731 C 52.351 323.319,52.113 323.734,51.250 324.065 C 50.672 324.286,49.676 324.731,49.035 325.052 C 47.769 325.688,47.219 325.337,47.206 323.887 C 47.193 322.309,46.006 320.333,44.798 319.877 C 43.887 319.533,43.481 319.044,43.180 317.927 C 42.612 315.815,41.843 315.208,39.671 315.152 C 38.642 315.126,37.350 315.081,36.800 315.052 C 36.049 315.013,35.800 315.199,35.800 315.800 C 35.800 316.477,36.108 316.619,37.800 316.725 C 40.409 316.889,41.600 317.943,41.600 320.088 C 41.600 321.404,41.785 321.740,42.832 322.319 L 44.065 323.000 43.810 326.408 C 43.536 330.054,43.741 331.200,44.666 331.200 C 45.004 331.200,45.127 331.006,44.962 330.738 C 44.783 330.448,44.852 330.385,45.149 330.569 C 46.601 331.466,47.873 331.155,48.550 329.737 C 49.018 328.756,49.692 328.142,50.770 327.719 C 51.919 327.267,52.374 326.828,52.538 326.011 C 52.900 324.200,54.855 320.399,55.640 319.978 C 56.043 319.763,56.578 318.824,56.828 317.893 C 57.445 315.600,58.264 314.073,59.793 312.367 C 60.596 311.471,61.175 310.314,61.341 309.277 C 61.527 308.116,62.130 307.030,63.353 305.653 C 64.567 304.286,65.249 303.061,65.591 301.637 C 65.931 300.220,66.501 299.192,67.437 298.310 C 68.336 297.461,69.081 296.155,69.656 294.417 C 70.208 292.746,70.983 291.361,71.800 290.584 C 72.637 289.788,73.398 288.406,74.003 286.584 C 74.637 284.673,75.346 283.415,76.264 282.572 C 76.999 281.896,77.602 281.086,77.604 280.772 C 77.611 279.758,79.537 276.020,80.528 275.096 C 81.058 274.603,81.787 273.176,82.149 271.924 C 82.556 270.518,83.325 269.100,84.159 268.216 C 85.508 266.785,86.117 265.593,86.581 263.476 C 86.716 262.858,87.516 261.598,88.357 260.676 C 89.355 259.583,90.201 258.045,90.791 256.254 C 91.481 254.160,91.967 253.352,92.838 252.854 C 93.532 252.456,94.082 251.730,94.241 251.000 C 94.695 248.921,96.273 245.734,97.154 245.117 C 97.619 244.791,98.363 243.471,98.806 242.184 C 99.704 239.573,100.588 238.049,101.641 237.296 C 102.028 237.020,102.635 235.797,102.989 234.580 C 103.356 233.317,104.202 231.730,104.958 230.883 C 106.584 229.065,107.015 228.240,107.372 226.264 C 107.547 225.299,108.221 224.108,109.187 223.060 C 110.257 221.900,110.910 220.682,111.334 219.059 C 111.964 216.645,112.796 215.382,114.007 214.998 C 114.456 214.855,115.037 213.737,115.625 211.888 C 116.245 209.937,116.955 208.605,117.813 207.781 C 118.512 207.111,119.315 205.851,119.596 204.981 C 120.341 202.680,121.398 200.706,122.340 199.854 C 122.794 199.443,123.540 197.984,123.997 196.610 C 124.454 195.237,125.288 193.683,125.852 193.157 C 127.014 192.071,128.174 190.041,127.829 189.696 C 127.703 189.570,127.600 189.648,127.600 189.870 M69.168 194.300 C 68.718 194.896,68.722 194.925,69.199 194.500 C 70.389 193.439,70.852 193.898,70.207 195.500 C 69.676 196.820,69.676 196.907,70.202 196.224 C 70.531 195.796,70.800 195.201,70.800 194.900 C 70.800 194.569,70.997 194.471,71.300 194.653 C 71.640 194.857,71.624 194.737,71.251 194.277 C 70.547 193.409,69.836 193.417,69.168 194.300 M64.652 205.600 C 64.735 206.370,64.912 207.583,65.046 208.295 C 65.498 210.700,65.059 211.391,63.029 211.469 C 60.787 211.555,60.400 211.787,60.400 213.047 C 60.400 213.676,60.564 213.946,60.843 213.774 C 61.086 213.623,62.066 213.516,63.020 213.535 C 66.359 213.602,68.226 208.846,65.672 206.778 C 65.228 206.419,64.783 205.692,64.683 205.162 C 64.583 204.633,64.569 204.830,64.652 205.600 M206.400 205.570 C 206.400 206.223,208.131 207.635,208.675 207.427 C 209.774 207.005,210.437 208.839,209.476 209.646 L 208.600 210.381 209.664 209.898 C 210.810 209.378,211.609 206.649,210.841 205.881 C 210.302 205.342,206.400 205.069,206.400 205.570 M206.400 207.586 C 206.400 207.814,206.715 208.013,207.100 208.028 C 207.699 208.052,207.684 208.106,207.000 208.400 C 206.472 208.627,206.404 208.751,206.800 208.766 C 207.785 208.804,209.200 208.331,209.200 207.966 C 209.200 207.778,208.944 207.723,208.631 207.843 C 208.318 207.963,207.688 207.861,207.231 207.617 C 206.678 207.321,206.400 207.310,206.400 207.586 M207.481 209.733 C 207.368 210.027,207.529 210.267,207.838 210.267 C 208.147 210.267,208.400 210.027,208.400 209.733 C 208.400 209.440,208.239 209.200,208.043 209.200 C 207.846 209.200,207.593 209.440,207.481 209.733 M210.406 212.876 C 210.398 213.818,211.133 214.197,213.000 214.216 L 214.600 214.232 214.800 216.216 C 214.966 217.864,215.050 218.031,215.295 217.200 C 216.142 214.322,215.502 213.296,212.839 213.267 C 211.841 213.257,210.933 213.021,210.745 212.724 C 210.492 212.326,210.411 212.363,210.406 212.876 M58.233 214.746 C 58.115 214.937,58.555 215.030,59.210 214.954 C 60.725 214.778,60.903 216.433,59.500 217.657 L 58.600 218.442 59.500 218.194 C 60.043 218.044,60.400 218.123,60.400 218.392 C 60.400 218.683,59.708 218.777,58.400 218.662 C 56.336 218.481,55.980 218.839,56.604 220.467 C 57.483 222.760,62.644 219.908,62.172 217.391 C 61.739 215.083,59.114 213.321,58.233 214.746 M56.900 215.065 C 56.625 215.176,56.400 215.442,56.400 215.657 C 56.400 215.872,56.565 215.945,56.766 215.821 C 56.967 215.697,57.223 215.821,57.334 216.098 C 57.446 216.374,57.551 216.195,57.568 215.700 C 57.586 215.205,57.555 214.814,57.500 214.832 C 57.445 214.849,57.175 214.954,56.900 215.065 M52.250 223.166 C 51.977 223.713,52.025 229.363,52.299 228.990 C 52.464 228.764,53.461 228.589,54.514 228.601 C 55.994 228.618,56.617 228.420,57.265 227.730 L 58.103 226.838 57.152 224.919 C 56.258 223.117,52.875 221.907,52.250 223.166 M48.103 234.100 L 48.020 237.000 50.110 236.859 C 52.879 236.672,53.315 236.273,52.977 234.231 C 52.559 231.704,52.169 231.218,50.609 231.277 C 49.852 231.305,49.326 231.480,49.440 231.664 C 49.554 231.849,49.457 232.000,49.224 232.000 C 48.991 232.000,48.800 231.820,48.800 231.600 C 48.800 229.615,48.167 231.887,48.103 234.100 M43.790 240.430 C 43.646 240.887,43.633 241.367,43.763 241.497 C 43.894 241.627,44.000 241.523,44.000 241.267 C 44.000 241.010,44.191 240.800,44.424 240.800 C 44.657 240.800,44.712 241.025,44.547 241.300 C 44.329 241.663,44.426 241.655,44.899 241.271 C 45.621 240.686,45.416 239.600,44.584 239.600 C 44.293 239.600,43.935 239.974,43.790 240.430 M47.200 239.987 C 47.200 240.201,46.930 240.271,46.600 240.145 C 46.270 240.018,46.000 240.107,46.000 240.343 C 46.000 240.579,45.460 241.325,44.800 242.000 C 43.748 243.076,43.609 243.486,43.672 245.314 L 43.744 247.400 43.892 245.558 L 44.039 243.715 45.625 243.828 C 46.543 243.893,47.113 243.782,46.978 243.564 C 46.850 243.357,46.549 243.308,46.311 243.455 C 46.051 243.615,45.991 243.537,46.162 243.262 C 46.525 242.674,46.624 242.682,47.293 243.351 C 47.761 243.818,47.853 243.576,47.906 241.751 C 47.940 240.568,47.795 239.600,47.584 239.600 C 47.373 239.600,47.200 239.774,47.200 239.987 M40.100 248.276 C 40.485 248.376,40.800 248.645,40.800 248.872 C 40.800 249.100,40.530 249.182,40.200 249.055 C 39.870 248.929,39.600 248.989,39.600 249.189 C 39.600 249.770,40.319 250.054,40.608 249.587 C 40.788 249.296,41.074 249.325,41.512 249.681 C 42.034 250.103,42.095 250.103,41.842 249.682 C 41.669 249.394,41.768 248.863,42.066 248.482 C 42.541 247.876,42.526 247.858,41.936 248.319 C 41.489 248.669,41.186 248.702,41.012 248.419 C 40.869 248.189,40.448 248.021,40.076 248.046 C 39.467 248.088,39.469 248.111,40.100 248.276 M40.047 250.371 C 39.646 250.619,39.669 250.741,40.154 250.927 C 40.495 251.058,40.873 251.005,40.994 250.810 C 41.309 250.300,40.654 249.996,40.047 250.371 M39.846 253.700 C 40.298 256.702,40.272 256.743,37.900 256.879 C 35.808 257.000,35.800 257.006,35.714 258.400 C 35.667 259.170,35.717 259.606,35.825 259.368 C 35.942 259.110,36.796 259.003,37.947 259.103 C 40.862 259.357,42.154 258.111,42.186 255.014 C 42.211 252.667,41.776 252.000,40.222 252.000 C 39.706 252.000,39.637 252.310,39.846 253.700 M32.269 260.965 C 32.119 261.354,32.099 261.837,32.224 262.039 C 32.349 262.241,32.193 262.505,31.877 262.626 C 31.343 262.831,31.302 263.420,31.565 267.079 C 31.661 268.398,36.843 266.901,37.550 265.350 C 38.463 263.346,35.972 259.709,34.500 260.895 C 34.158 261.171,34.000 261.156,34.000 260.849 C 34.000 260.104,33.202 260.346,33.172 261.100 C 33.147 261.712,33.106 261.703,32.842 261.029 C 32.561 260.312,32.521 260.307,32.269 260.965 M27.200 271.920 L 27.200 275.039 29.394 274.987 C 33.012 274.900,33.956 273.451,32.392 270.384 C 31.599 268.830,31.543 268.800,29.392 268.800 L 27.200 268.800 27.200 271.920 M23.371 277.506 C 23.129 277.671,22.898 279.440,22.842 281.546 C 22.751 284.970,22.657 285.371,21.735 286.225 C 21.181 286.739,20.847 287.353,20.993 287.589 C 21.140 287.826,21.111 287.972,20.930 287.913 C 20.748 287.854,20.240 288.075,19.800 288.403 C 18.775 289.168,18.584 291.966,19.568 291.807 C 20.299 291.688,21.612 292.288,21.549 292.712 C 21.436 293.462,21.647 293.659,22.132 293.257 C 22.562 292.899,22.681 293.247,22.755 295.078 C 22.806 296.322,23.034 297.690,23.263 298.118 C 23.553 298.660,23.552 298.818,23.261 298.637 C 22.992 298.472,22.864 298.942,22.904 299.945 C 22.952 301.137,23.106 301.458,23.549 301.288 C 23.879 301.161,24.024 301.238,23.884 301.465 C 23.167 302.624,27.980 301.939,28.991 300.738 C 31.471 297.790,29.739 294.993,25.267 294.724 C 22.880 294.581,22.763 294.329,24.377 292.821 C 26.477 290.859,26.478 288.417,24.380 286.318 C 22.440 284.379,22.750 283.369,25.231 283.541 C 28.826 283.790,30.161 281.600,28.186 278.693 C 27.166 277.193,24.712 276.588,23.371 277.506 M20.940 290.587 C 21.064 290.910,20.965 291.298,20.721 291.449 C 20.452 291.615,20.389 291.541,20.562 291.262 C 20.719 291.008,20.672 290.800,20.457 290.800 C 20.242 290.800,19.976 291.025,19.865 291.300 C 19.739 291.612,19.651 291.549,19.632 291.133 C 19.614 290.767,19.825 290.376,20.100 290.265 C 20.375 290.154,20.626 290.049,20.657 290.032 C 20.689 290.014,20.816 290.264,20.940 290.587 M18.801 293.033 C 18.800 293.272,19.310 293.467,19.933 293.467 C 20.557 293.467,21.067 293.254,21.067 292.994 C 21.067 292.733,20.561 292.539,19.934 292.561 C 19.311 292.582,18.801 292.795,18.801 293.033 M27.521 302.849 C 26.446 303.513,27.592 304.400,29.525 304.400 C 32.639 304.400,33.524 305.997,32.139 309.113 C 31.775 309.931,31.411 311.431,31.330 312.447 L 31.182 314.295 33.369 314.314 C 35.392 314.332,36.944 313.611,36.290 312.956 C 36.166 312.833,36.252 312.197,36.480 311.542 C 36.832 310.532,36.765 310.214,36.033 309.435 C 35.527 308.897,35.033 307.652,34.840 306.428 C 34.658 305.278,34.212 304.041,33.849 303.678 C 33.153 302.981,28.329 302.349,27.521 302.849 M39.606 325.900 C 39.621 326.622,40.307 327.007,41.752 327.104 C 43.097 327.194,43.237 327.127,42.803 326.604 C 42.241 325.926,41.819 325.784,42.200 326.400 C 42.566 326.992,41.865 326.885,40.976 326.213 C 40.116 325.562,39.597 325.443,39.606 325.900 " stroke="none" fill="#4931c1" fill-rule="evenodd"></path><path id="path1" d="M163.892 128.400 C 163.583 129.170,163.013 130.662,162.625 131.717 C 162.238 132.771,161.499 133.910,160.983 134.248 C 160.390 134.636,159.726 135.819,159.182 137.453 C 158.663 139.015,157.700 140.760,156.760 141.847 C 155.840 142.909,155.009 144.402,154.738 145.481 C 154.446 146.639,153.640 148.029,152.544 149.263 C 151.592 150.336,150.703 151.705,150.570 152.307 C 149.981 154.968,149.428 156.150,147.995 157.806 C 147.089 158.853,146.209 160.451,145.840 161.723 C 145.496 162.904,144.652 164.575,143.964 165.435 C 143.276 166.296,142.309 167.907,141.816 169.015 C 141.323 170.123,140.450 171.338,139.875 171.714 C 139.213 172.148,138.671 173.019,138.393 174.099 C 137.519 177.494,137.095 178.491,135.999 179.740 C 135.386 180.439,134.436 182.112,133.889 183.458 C 133.309 184.884,132.207 186.593,131.247 187.553 C 130.341 188.459,129.600 189.494,129.600 189.854 C 129.600 191.252,128.613 193.694,127.711 194.527 C 126.520 195.626,125.684 197.171,124.957 199.621 C 124.643 200.677,123.774 202.273,123.026 203.169 C 122.277 204.065,121.374 205.673,121.019 206.741 C 120.664 207.810,119.943 209.090,119.416 209.585 C 118.890 210.079,118.064 211.500,117.582 212.742 C 117.004 214.232,116.108 215.544,114.947 216.600 C 113.412 217.995,113.138 218.500,112.807 220.544 C 112.490 222.501,112.138 223.197,110.671 224.765 C 109.338 226.190,108.849 227.076,108.646 228.435 C 108.368 230.284,107.096 232.800,106.439 232.800 C 105.845 232.800,104.522 235.259,104.229 236.909 C 104.081 237.738,103.454 238.998,102.834 239.709 C 101.681 241.031,100.333 243.455,99.807 245.155 C 99.644 245.680,98.940 246.858,98.241 247.773 C 97.542 248.689,96.639 250.329,96.234 251.419 C 95.828 252.508,94.992 253.940,94.375 254.600 C 93.758 255.260,92.867 256.880,92.395 258.200 C 91.877 259.647,91.017 261.076,90.229 261.800 C 88.669 263.233,88.270 263.967,87.631 266.585 C 87.310 267.896,86.621 269.139,85.598 270.248 C 84.684 271.240,83.869 272.638,83.606 273.664 C 82.892 276.460,82.413 277.438,81.182 278.618 C 80.543 279.229,79.738 280.583,79.391 281.628 C 79.044 282.672,78.294 284.029,77.724 284.644 C 77.154 285.259,76.165 287.031,75.525 288.581 C 74.886 290.132,73.853 291.940,73.230 292.600 C 72.607 293.260,71.784 294.790,71.401 296.000 C 70.964 297.382,70.128 298.800,69.153 299.815 C 68.040 300.972,67.428 302.091,66.992 303.765 C 66.559 305.430,65.898 306.642,64.692 307.987 C 63.482 309.337,62.858 310.484,62.500 312.017 C 62.192 313.340,61.558 314.628,60.845 315.380 C 59.507 316.792,58.612 318.464,58.221 320.279 C 58.069 320.983,57.394 322.243,56.719 323.079 C 56.045 323.916,55.088 325.500,54.593 326.600 C 53.478 329.079,52.760 329.715,50.100 330.581 L 48.000 331.264 48.000 333.195 L 48.000 335.125 49.980 335.397 L 51.959 335.669 52.080 337.535 L 52.200 339.400 54.300 339.521 L 56.400 339.642 56.400 341.621 L 56.400 343.600 198.000 343.600 L 339.600 343.600 339.600 341.600 L 339.600 339.600 341.600 339.600 L 343.600 339.600 343.600 335.421 L 343.600 331.242 345.700 331.121 L 347.800 331.000 347.914 326.900 L 348.028 322.800 350.014 322.800 L 352.000 322.800 352.000 318.621 L 352.000 314.442 354.100 314.321 L 356.200 314.200 356.314 310.300 L 356.429 306.400 357.782 306.400 C 360.094 306.400,360.400 306.115,360.400 303.957 L 360.400 302.000 362.400 302.000 L 364.400 302.000 364.400 297.100 L 364.400 292.200 297.700 292.295 C 261.015 292.348,207.529 292.258,178.843 292.095 L 126.686 291.800 125.873 290.712 C 124.929 289.446,125.180 288.574,127.218 286.038 C 127.882 285.211,128.793 283.559,129.243 282.367 C 129.692 281.175,130.582 279.656,131.220 278.991 C 131.858 278.326,132.744 276.726,133.188 275.435 C 133.697 273.957,134.632 272.405,135.715 271.244 C 137.021 269.843,137.554 268.863,137.931 267.165 C 138.295 265.529,138.797 264.572,139.805 263.596 C 140.696 262.732,141.479 261.365,142.027 259.717 C 142.493 258.318,143.311 256.655,143.844 256.021 C 144.378 255.387,145.246 253.890,145.775 252.696 C 146.303 251.501,147.425 249.702,148.268 248.698 C 149.110 247.693,150.300 246.145,150.911 245.256 C 151.941 243.759,152.175 243.632,154.111 243.521 L 156.200 243.400 156.322 241.500 L 156.444 239.600 158.422 239.600 L 160.400 239.600 160.400 235.400 L 160.400 231.200 162.400 231.200 L 164.400 231.200 164.400 227.000 L 164.400 222.800 166.600 222.800 L 168.800 222.800 168.800 218.600 L 168.800 214.400 170.800 214.400 L 172.800 214.400 172.800 212.421 L 172.800 210.442 174.900 210.321 L 177.000 210.200 177.114 206.100 L 177.228 202.000 179.214 202.000 L 181.200 202.000 181.200 197.800 L 181.200 193.600 183.148 193.600 C 185.381 193.600,185.587 193.141,185.596 188.138 L 185.600 185.675 187.600 185.400 L 189.600 185.125 189.600 181.209 C 189.600 177.630,189.669 177.275,190.400 177.084 C 192.224 176.607,191.403 172.252,188.979 169.539 C 188.083 168.538,187.526 167.370,187.205 165.824 C 186.841 164.072,186.396 163.238,185.210 162.085 C 184.008 160.916,183.573 160.089,183.166 158.200 C 182.748 156.264,182.321 155.474,180.955 154.112 C 180.023 153.183,179.168 152.103,179.054 151.712 C 178.941 151.320,178.650 150.234,178.408 149.297 C 178.157 148.326,177.397 147.024,176.639 146.266 C 175.796 145.422,174.984 143.956,174.416 142.249 C 173.924 140.769,173.095 139.163,172.574 138.680 C 172.053 138.196,171.071 136.652,170.392 135.249 C 169.713 133.846,168.454 131.866,167.595 130.849 C 166.735 129.832,165.677 128.550,165.243 128.000 L 164.454 127.000 163.892 128.400 " stroke="none" fill="#040404" fill-rule="evenodd"></path><path id="path2" d="M160.333 35.179 C 160.260 35.387,159.390 35.598,158.400 35.648 L 156.599 35.739 156.495 37.502 C 156.414 38.864,156.573 39.415,157.197 39.932 C 158.517 41.026,158.680 43.891,157.520 45.600 C 156.506 47.094,153.036 47.810,152.313 46.673 C 152.111 46.355,152.010 46.423,152.006 46.882 C 152.003 47.257,152.450 48.014,153.000 48.564 C 155.384 50.947,153.774 54.800,150.395 54.800 C 147.961 54.800,147.718 55.189,148.765 57.414 C 150.273 60.624,149.564 61.868,146.081 62.122 C 143.344 62.322,143.346 62.318,144.206 65.771 C 145.109 69.396,144.764 70.157,142.322 69.924 C 141.458 69.842,140.794 69.956,140.787 70.189 C 140.780 70.415,140.490 70.240,140.142 69.800 C 139.528 69.024,139.524 73.157,140.136 76.200 C 140.391 77.465,139.755 77.883,137.839 77.711 C 135.874 77.536,135.704 77.742,135.531 80.498 C 135.468 81.493,135.303 81.863,135.038 81.598 C 134.514 81.074,133.080 81.082,133.404 81.607 C 133.542 81.830,133.851 81.892,134.089 81.745 C 134.349 81.585,134.409 81.663,134.238 81.938 C 133.926 82.444,132.371 82.584,132.447 82.100 C 132.571 81.319,132.348 81.145,131.804 81.596 C 131.182 82.113,131.379 82.984,132.028 82.583 C 132.232 82.456,132.400 82.713,132.400 83.153 C 132.400 83.593,132.192 84.081,131.938 84.238 C 131.663 84.409,131.585 84.349,131.745 84.089 C 131.892 83.851,131.826 83.540,131.598 83.399 C 131.341 83.240,131.217 83.586,131.271 84.304 C 131.352 85.358,132.400 86.045,132.400 85.044 C 132.400 83.842,133.538 86.465,133.602 87.815 C 133.724 90.383,133.650 90.679,132.564 91.969 C 131.667 93.036,131.267 93.200,129.564 93.200 C 128.484 93.200,127.600 93.380,127.600 93.600 C 127.600 93.820,127.864 94.000,128.186 94.000 C 128.884 94.000,129.486 95.019,129.604 96.400 C 129.859 99.401,128.387 101.197,125.664 101.206 C 123.313 101.214,122.340 101.726,123.498 102.345 C 124.598 102.934,125.728 105.814,125.226 106.751 C 124.362 108.365,123.710 108.611,119.900 108.758 C 118.773 108.801,118.331 110.115,119.140 111.020 C 120.736 112.805,120.785 115.646,119.235 116.585 C 118.257 117.178,115.479 117.249,115.124 116.691 C 114.942 116.404,114.810 116.806,114.806 117.657 C 114.802 118.592,115.017 119.197,115.404 119.346 C 115.736 119.473,115.978 119.718,115.941 119.889 C 115.905 120.060,116.154 120.821,116.495 121.579 C 117.192 123.131,116.656 124.538,115.192 125.003 C 114.782 125.133,114.355 125.760,114.228 126.418 C 114.103 127.068,113.887 128.178,113.750 128.885 C 113.598 129.664,112.801 130.847,111.724 131.895 C 110.268 133.310,109.891 133.983,109.629 135.641 C 109.191 138.412,108.579 138.896,105.112 139.215 C 103.511 139.362,102.487 139.509,102.839 139.541 C 104.294 139.675,105.291 141.105,105.313 143.087 C 105.353 146.730,104.392 147.580,100.267 147.548 C 99.203 147.540,98.228 147.638,98.100 147.767 C 97.972 147.895,98.257 148.000,98.733 148.000 C 99.210 148.000,99.600 148.159,99.600 148.353 C 99.600 148.548,99.948 148.798,100.373 148.909 C 102.052 149.348,102.380 154.754,100.780 155.611 C 100.380 155.825,99.151 156.000,98.050 156.000 C 95.988 156.000,95.011 156.559,96.337 156.980 C 96.941 157.172,97.131 157.755,97.320 160.009 C 97.620 163.597,97.623 163.600,100.398 163.600 C 104.303 163.600,104.800 163.953,104.800 166.728 C 104.800 169.782,105.370 170.317,108.793 170.479 C 111.304 170.597,111.402 170.643,112.585 172.265 C 113.253 173.180,114.364 174.244,115.052 174.630 C 115.741 175.015,116.630 175.886,117.027 176.565 C 118.117 178.427,118.785 178.773,121.318 178.787 C 123.773 178.801,124.328 179.147,126.163 181.810 C 126.816 182.758,126.989 182.830,127.370 182.309 C 127.614 181.975,128.550 181.577,129.449 181.425 L 131.085 181.149 131.326 177.736 C 131.606 173.766,131.946 173.200,134.049 173.200 C 135.560 173.200,135.600 173.163,135.600 171.775 C 135.600 168.991,136.758 166.426,138.353 165.676 C 139.760 165.014,139.808 164.918,140.074 162.228 C 140.373 159.200,141.262 157.563,142.805 157.199 C 143.515 157.031,143.840 156.552,144.169 155.189 C 144.556 153.584,144.771 153.341,146.261 152.826 L 147.923 152.251 148.194 149.626 C 148.515 146.530,149.137 145.404,150.948 144.647 C 152.203 144.123,152.293 143.951,152.497 141.710 C 152.767 138.724,153.639 137.004,155.147 136.479 C 156.107 136.144,156.368 135.772,156.598 134.413 C 156.785 133.305,157.510 131.968,158.788 130.376 C 160.051 128.802,160.785 127.456,160.953 126.405 C 161.867 120.688,171.030 124.118,172.345 130.669 C 172.611 131.993,173.162 133.268,173.697 133.801 C 175.706 135.798,176.335 136.871,176.591 138.738 C 176.801 140.264,177.117 140.884,178.027 141.557 C 179.418 142.585,180.798 145.130,180.806 146.684 C 180.813 148.026,181.056 148.399,182.533 149.340 C 183.817 150.158,184.774 152.154,185.151 154.800 C 185.355 156.234,185.581 156.625,186.262 156.722 C 187.770 156.938,189.600 160.969,189.600 164.076 C 189.600 164.447,190.079 164.796,190.783 164.937 C 192.296 165.239,193.130 166.816,193.463 170.002 C 193.603 171.335,193.858 172.512,194.030 172.618 C 194.279 172.773,194.240 174.724,193.947 176.717 C 193.713 178.309,194.662 178.962,197.081 178.873 C 199.066 178.800,200.357 180.610,199.648 182.474 C 199.454 182.983,199.319 183.516,199.348 183.658 C 199.377 183.800,199.047 184.306,198.616 184.782 C 197.573 185.935,199.108 186.852,201.365 186.426 C 203.292 186.061,205.004 188.549,204.852 191.492 C 204.791 192.654,204.905 193.182,205.180 193.013 C 205.411 192.870,205.600 192.954,205.600 193.200 C 205.600 193.446,205.752 193.553,205.938 193.438 C 206.517 193.081,209.197 195.848,209.246 196.854 C 209.362 199.226,208.424 201.411,207.113 201.827 C 205.695 202.278,206.451 202.671,208.900 202.757 C 213.655 202.924,215.697 206.895,212.534 209.826 L 211.585 210.706 214.191 210.872 C 217.258 211.067,217.575 211.312,218.050 213.856 C 218.312 215.257,218.797 216.157,219.830 217.161 C 220.966 218.264,221.203 218.748,221.012 219.571 C 220.558 221.523,219.901 222.800,219.351 222.800 C 219.048 222.800,218.800 223.070,218.800 223.400 C 218.800 224.045,219.420 224.215,219.760 223.665 C 220.092 223.128,224.400 223.876,225.213 224.612 C 226.953 226.187,226.232 229.932,223.964 231.094 L 223.000 231.588 224.000 231.650 C 224.550 231.683,225.450 231.751,226.000 231.801 C 226.550 231.850,227.398 231.915,227.884 231.945 C 230.401 232.101,231.401 236.562,229.374 238.589 C 228.810 239.154,228.180 239.511,227.974 239.384 C 227.768 239.257,227.600 239.343,227.600 239.576 C 227.600 239.828,228.581 240.000,230.013 240.000 C 232.483 240.000,235.200 240.828,235.200 241.580 C 235.200 241.815,236.043 242.000,237.116 242.000 C 238.170 242.000,240.015 242.248,241.216 242.552 C 244.150 243.292,276.860 243.780,277.547 243.093 C 278.767 241.873,277.552 236.110,275.904 235.299 C 274.942 234.825,273.600 232.318,273.600 230.993 C 273.600 230.668,272.995 229.727,272.255 228.901 C 270.657 227.119,269.600 225.164,269.600 223.994 C 269.600 222.859,268.877 221.576,267.728 220.672 C 266.473 219.684,265.790 218.278,265.217 215.500 C 264.925 214.080,264.538 213.200,264.207 213.200 C 263.583 213.200,261.744 211.126,261.461 210.102 C 261.355 209.716,261.153 208.557,261.013 207.527 C 260.803 205.975,260.541 205.525,259.480 204.896 C 258.455 204.288,258.001 203.554,257.200 201.210 C 256.532 199.252,255.849 198.021,255.141 197.496 C 254.483 197.008,253.824 195.892,253.403 194.552 C 253.029 193.366,252.048 191.577,251.222 190.578 C 250.297 189.458,249.467 187.851,249.062 186.393 C 248.587 184.684,248.077 183.785,247.227 183.157 C 246.027 182.270,244.400 179.100,244.400 177.651 C 244.400 177.210,243.841 176.253,243.157 175.525 C 241.825 174.105,240.010 170.643,240.004 169.509 C 240.002 169.129,239.541 168.518,238.980 168.150 C 237.716 167.322,237.114 166.146,236.210 162.742 C 235.680 160.746,235.275 159.980,234.582 159.664 C 233.962 159.382,233.364 158.434,232.759 156.775 C 232.264 155.418,231.253 153.581,230.512 152.695 C 229.772 151.809,228.948 150.267,228.683 149.269 C 228.377 148.122,227.572 146.784,226.489 145.628 C 225.322 144.381,224.545 143.044,224.043 141.420 C 223.638 140.111,222.855 138.581,222.302 138.020 C 221.354 137.056,219.200 132.971,219.200 132.136 C 219.200 131.924,218.678 131.250,218.040 130.639 C 217.350 129.978,216.433 128.287,215.776 126.464 C 215.151 124.730,214.092 122.748,213.336 121.899 C 212.601 121.073,212.000 120.151,212.000 119.850 C 212.000 118.906,210.466 115.784,209.632 115.029 C 209.193 114.632,208.463 113.191,208.009 111.827 C 207.438 110.112,206.687 108.861,205.574 107.775 C 204.449 106.676,203.773 105.544,203.327 104.009 C 202.976 102.802,202.161 101.181,201.515 100.407 C 200.869 99.633,199.859 97.909,199.270 96.575 C 198.682 95.241,197.705 93.562,197.100 92.844 C 196.495 92.126,195.885 91.057,195.744 90.469 C 195.390 88.993,194.477 87.257,193.183 85.600 C 192.581 84.830,191.779 83.239,191.400 82.064 C 190.994 80.803,190.017 79.145,189.017 78.019 C 187.964 76.834,187.151 75.426,186.867 74.300 C 186.616 73.304,185.806 71.764,185.066 70.879 C 184.326 69.993,183.306 68.219,182.798 66.935 C 182.291 65.651,181.471 64.150,180.976 63.600 C 180.482 63.050,179.534 61.393,178.872 59.918 C 178.209 58.443,177.133 56.553,176.481 55.718 C 175.830 54.883,175.012 53.334,174.664 52.275 C 174.316 51.216,173.392 49.479,172.611 48.415 C 171.829 47.350,170.811 45.607,170.347 44.540 C 169.883 43.473,169.111 42.060,168.632 41.400 C 168.152 40.740,167.188 38.985,166.488 37.500 L 165.217 34.800 162.842 34.800 C 161.536 34.800,160.407 34.970,160.333 35.179 M134.282 84.192 C 133.945 84.555,133.718 84.580,133.526 84.275 C 133.141 83.659,133.519 83.194,134.195 83.453 C 134.642 83.625,134.661 83.784,134.282 84.192 " stroke="none" fill="#4388e0" fill-rule="evenodd"></path><path id="path3" d="M160.400 34.000 C 160.400 34.711,160.667 34.800,162.809 34.800 L 165.217 34.800 166.488 37.500 C 167.188 38.985,168.152 40.740,168.632 41.400 C 169.111 42.060,169.883 43.473,170.347 44.540 C 170.811 45.607,171.829 47.350,172.611 48.415 C 173.392 49.479,174.316 51.216,174.664 52.275 C 175.012 53.334,175.830 54.883,176.481 55.718 C 177.133 56.553,178.209 58.443,178.872 59.918 C 179.534 61.393,180.482 63.050,180.976 63.600 C 181.471 64.150,182.291 65.651,182.798 66.935 C 183.306 68.219,184.326 69.993,185.066 70.879 C 185.806 71.764,186.616 73.304,186.867 74.300 C 187.151 75.426,187.964 76.834,189.017 78.019 C 190.017 79.145,190.994 80.803,191.400 82.064 C 191.779 83.239,192.581 84.830,193.183 85.600 C 194.477 87.257,195.390 88.993,195.744 90.469 C 195.885 91.057,196.495 92.126,197.100 92.844 C 197.705 93.562,198.682 95.241,199.270 96.575 C 199.859 97.909,200.869 99.633,201.515 100.407 C 202.161 101.181,202.976 102.802,203.327 104.009 C 203.773 105.544,204.449 106.676,205.574 107.775 C 206.687 108.861,207.438 110.112,208.009 111.827 C 208.463 113.191,209.193 114.632,209.632 115.029 C 210.466 115.784,212.000 118.906,212.000 119.850 C 212.000 120.151,212.601 121.073,213.336 121.899 C 214.092 122.748,215.151 124.730,215.776 126.464 C 216.433 128.287,217.350 129.978,218.040 130.639 C 218.678 131.250,219.200 131.924,219.200 132.136 C 219.200 132.971,221.354 137.056,222.302 138.020 C 222.855 138.581,223.638 140.111,224.043 141.420 C 224.545 143.044,225.322 144.381,226.489 145.628 C 227.572 146.784,228.377 148.122,228.683 149.269 C 228.948 150.267,229.772 151.809,230.512 152.695 C 231.253 153.581,232.264 155.418,232.759 156.775 C 233.364 158.434,233.962 159.382,234.582 159.664 C 235.275 159.980,235.680 160.746,236.210 162.742 C 237.114 166.146,237.716 167.322,238.980 168.150 C 239.541 168.518,240.002 169.129,240.004 169.509 C 240.010 170.643,241.825 174.105,243.157 175.525 C 243.841 176.253,244.400 177.210,244.400 177.651 C 244.400 179.100,246.027 182.270,247.227 183.157 C 248.077 183.785,248.587 184.684,249.062 186.393 C 249.467 187.851,250.297 189.458,251.222 190.578 C 252.048 191.577,253.029 193.366,253.403 194.552 C 253.824 195.892,254.483 197.008,255.141 197.496 C 255.849 198.021,256.532 199.252,257.200 201.210 C 258.001 203.554,258.455 204.288,259.480 204.896 C 260.541 205.525,260.803 205.975,261.013 207.527 C 261.153 208.557,261.355 209.716,261.461 210.102 C 261.744 211.126,263.583 213.200,264.207 213.200 C 264.538 213.200,264.925 214.080,265.217 215.500 C 265.790 218.278,266.473 219.684,267.728 220.672 C 268.877 221.576,269.600 222.859,269.600 223.994 C 269.600 225.164,270.657 227.119,272.255 228.901 C 272.995 229.727,273.600 230.668,273.600 230.993 C 273.600 232.318,274.942 234.825,275.904 235.299 C 277.552 236.110,278.767 241.873,277.547 243.093 C 276.860 243.780,244.150 243.292,241.216 242.552 C 240.015 242.248,238.170 242.000,237.116 242.000 C 236.043 242.000,235.200 241.815,235.200 241.580 C 235.200 240.828,232.483 240.000,230.013 240.000 C 228.581 240.000,227.600 239.828,227.600 239.576 C 227.600 239.343,227.768 239.257,227.974 239.384 C 228.180 239.511,228.810 239.154,229.374 238.589 C 231.401 236.562,230.401 232.101,227.884 231.945 C 227.398 231.915,226.550 231.850,226.000 231.801 C 225.450 231.751,224.550 231.683,224.000 231.650 L 223.000 231.588 223.964 231.094 C 227.821 229.117,226.720 224.246,222.280 223.643 C 219.152 223.219,218.800 223.585,218.800 227.264 C 218.800 230.685,219.124 231.200,221.280 231.200 L 222.800 231.200 222.800 233.344 C 222.800 236.908,223.239 239.271,223.857 239.033 C 224.156 238.919,224.400 239.019,224.400 239.256 C 224.400 239.513,224.961 239.622,225.782 239.526 L 227.164 239.365 227.282 241.333 L 227.400 243.300 229.332 243.464 C 230.482 243.562,232.113 244.108,233.364 244.814 L 235.465 246.000 258.526 246.000 L 281.587 246.000 282.797 244.900 L 284.006 243.800 283.057 241.800 C 282.534 240.700,281.453 238.837,280.654 237.660 C 279.854 236.483,279.200 235.288,279.200 235.005 C 279.200 234.721,278.547 233.540,277.748 232.379 C 276.950 231.219,275.752 229.084,275.086 227.635 C 274.421 226.186,273.637 224.720,273.345 224.377 C 273.054 224.034,272.076 222.234,271.172 220.377 C 270.269 218.520,269.198 216.640,268.794 216.200 C 268.389 215.760,267.669 214.358,267.194 213.084 C 266.719 211.811,265.663 209.997,264.846 209.053 C 264.029 208.110,263.027 206.452,262.619 205.369 C 262.211 204.286,261.352 202.630,260.711 201.689 C 260.070 200.747,259.092 198.947,258.538 197.689 C 257.984 196.430,257.091 194.820,256.554 194.112 C 256.017 193.403,255.057 191.723,254.421 190.379 C 253.785 189.035,253.000 187.635,252.676 187.268 C 252.127 186.645,250.881 184.345,246.399 175.682 C 245.408 173.767,244.129 171.480,243.557 170.600 C 242.985 169.720,242.390 168.598,242.234 168.107 C 242.078 167.617,241.244 166.274,240.381 165.125 C 239.517 163.976,238.422 161.868,237.947 160.442 C 237.473 159.015,236.635 157.398,236.085 156.849 C 235.536 156.299,234.473 154.504,233.723 152.859 C 232.973 151.214,231.919 149.344,231.380 148.703 C 230.841 148.063,230.400 147.376,230.400 147.176 C 230.400 146.977,229.663 145.610,228.762 144.138 C 227.861 142.665,226.335 139.795,225.371 137.760 C 224.407 135.724,223.413 133.932,223.162 133.777 C 222.912 133.622,222.115 132.214,221.392 130.648 C 220.669 129.081,219.638 127.219,219.102 126.509 C 218.566 125.798,217.631 124.050,217.025 122.623 C 216.402 121.157,215.610 119.930,215.204 119.801 C 214.716 119.647,214.143 118.472,213.416 116.141 C 212.827 114.254,211.953 112.314,211.473 111.831 C 210.993 111.348,209.891 109.550,209.024 107.835 C 208.157 106.120,207.235 104.635,206.974 104.535 C 206.526 104.363,205.947 103.184,204.757 100.022 C 204.472 99.264,203.714 98.047,203.073 97.317 C 202.433 96.587,201.379 94.688,200.732 93.095 C 200.084 91.503,199.145 89.750,198.644 89.200 C 198.144 88.650,197.247 87.030,196.652 85.600 C 196.057 84.170,195.148 82.640,194.631 82.200 C 194.114 81.760,193.107 80.050,192.392 78.400 C 191.678 76.750,190.577 74.809,189.946 74.086 C 189.316 73.363,188.800 72.445,188.800 72.046 C 188.800 71.148,187.060 67.824,185.815 66.345 C 185.307 65.741,184.677 64.355,184.415 63.264 C 184.102 61.958,183.355 60.596,182.226 59.273 C 181.190 58.060,180.331 56.547,180.055 55.452 C 179.735 54.182,179.202 53.337,178.272 52.628 C 177.217 51.823,176.719 50.919,175.831 48.190 C 175.076 45.869,174.422 44.571,173.803 44.166 C 173.163 43.746,172.610 42.596,171.951 40.314 C 171.152 37.550,170.820 36.949,169.741 36.312 C 169.043 35.900,168.368 35.293,168.241 34.964 C 167.588 33.261,160.400 32.377,160.400 34.000 M156.337 41.799 L 156.474 44.000 154.937 44.071 C 154.092 44.111,153.085 44.141,152.700 44.140 C 152.212 44.137,152.002 44.449,152.006 45.168 C 152.016 46.825,152.460 47.152,154.592 47.073 C 157.228 46.976,158.607 45.222,158.235 42.440 C 157.773 38.994,156.128 38.438,156.337 41.799 M149.082 48.669 C 149.277 49.177,149.177 49.277,148.669 49.082 C 148.167 48.889,148.002 49.046,148.006 49.713 C 148.011 50.373,148.101 50.459,148.361 50.049 C 148.553 49.746,148.911 49.621,149.155 49.772 C 149.870 50.214,149.668 50.800,148.800 50.800 C 148.360 50.800,148.000 50.999,148.000 51.243 C 148.000 51.486,148.264 51.584,148.587 51.460 C 148.910 51.336,149.298 51.435,149.449 51.679 C 149.611 51.941,149.542 52.011,149.282 51.851 C 148.744 51.518,148.000 52.807,147.999 54.074 C 147.999 55.487,152.023 55.205,153.200 53.709 C 154.247 52.378,154.251 49.988,153.208 48.744 C 152.420 47.804,151.262 48.329,151.888 49.343 C 152.018 49.552,151.924 49.600,151.679 49.449 C 151.435 49.298,151.336 48.910,151.460 48.587 C 151.584 48.264,151.486 48.000,151.243 48.000 C 150.999 48.000,150.800 48.360,150.800 48.800 C 150.800 49.668,150.214 49.870,149.772 49.155 C 149.621 48.911,149.746 48.553,150.049 48.361 C 150.459 48.101,150.373 48.011,149.713 48.006 C 149.046 48.002,148.889 48.167,149.082 48.669 M144.183 57.327 C 144.055 57.836,144.006 59.141,144.075 60.227 L 144.200 62.200 146.200 62.071 C 149.409 61.863,150.183 60.693,148.995 57.849 C 148.214 55.980,144.619 55.590,144.183 57.327 M142.007 64.728 C 139.921 64.876,139.614 65.220,139.606 67.424 C 139.601 68.779,140.749 71.457,140.787 70.180 C 140.795 69.937,141.391 69.830,142.206 69.925 C 144.639 70.209,145.275 69.000,144.269 66.000 C 143.816 64.647,143.740 64.604,142.007 64.728 M138.200 72.997 C 137.980 73.070,137.305 73.239,136.700 73.373 C 135.643 73.606,135.600 73.712,135.606 76.108 C 135.610 77.594,135.747 78.388,135.946 78.074 C 136.165 77.728,136.848 77.605,137.940 77.714 C 139.739 77.894,140.370 77.466,140.172 76.200 C 139.638 72.796,139.496 72.564,138.200 72.997 M132.800 81.551 C 132.800 81.798,132.575 81.955,132.300 81.900 C 132.025 81.845,131.845 82.025,131.900 82.300 C 131.955 82.575,131.798 82.800,131.551 82.800 C 131.221 82.800,131.220 82.942,131.548 83.337 C 131.793 83.632,131.860 84.021,131.697 84.201 C 131.533 84.381,131.625 84.399,131.900 84.241 C 132.175 84.082,132.400 83.603,132.400 83.176 C 132.400 82.675,132.675 82.400,133.176 82.400 C 133.603 82.400,134.082 82.175,134.241 81.900 C 134.399 81.625,134.381 81.533,134.201 81.697 C 134.021 81.860,133.632 81.793,133.337 81.548 C 132.942 81.220,132.800 81.221,132.800 81.551 M133.439 83.537 C 133.054 84.160,133.785 84.728,134.282 84.192 C 134.661 83.784,134.642 83.625,134.195 83.453 C 133.882 83.333,133.542 83.371,133.439 83.537 M131.347 85.100 C 131.538 85.418,131.411 85.600,131.000 85.600 C 130.644 85.600,130.441 85.743,130.549 85.917 C 130.656 86.091,130.354 86.263,129.877 86.299 C 129.215 86.349,129.146 86.280,129.588 86.007 C 129.985 85.762,129.740 85.682,128.808 85.753 L 127.449 85.857 127.335 89.813 C 127.209 94.153,127.076 94.803,126.313 94.794 C 125.948 94.790,125.970 94.680,126.388 94.416 C 126.807 94.151,126.578 94.066,125.588 94.122 C 124.181 94.201,122.881 95.015,123.374 95.507 C 123.522 95.656,123.804 95.517,124.000 95.200 C 124.196 94.883,124.485 94.752,124.643 94.910 C 124.800 95.067,124.485 95.602,123.941 96.098 C 123.149 96.822,122.935 97.441,122.857 99.235 L 122.761 101.469 125.081 101.287 C 127.418 101.104,128.490 100.526,129.299 99.016 C 130.180 97.369,129.432 94.000,128.186 94.000 C 127.864 94.000,127.600 93.820,127.600 93.600 C 127.600 93.380,128.484 93.200,129.564 93.200 C 131.267 93.200,131.667 93.036,132.564 91.969 C 133.650 90.679,133.724 90.383,133.602 87.815 C 133.533 86.372,132.400 83.869,132.400 85.160 C 132.400 85.606,132.285 85.604,131.723 85.149 C 131.263 84.776,131.143 84.760,131.347 85.100 M120.200 102.293 C 119.010 102.590,118.813 103.131,118.806 106.117 L 118.800 108.834 121.179 108.683 C 124.820 108.453,126.028 107.086,124.956 104.407 C 124.064 102.177,122.841 101.633,120.200 102.293 M115.560 110.761 C 114.863 111.025,114.502 115.774,115.110 116.691 C 115.480 117.249,118.257 117.178,119.235 116.585 C 120.811 115.630,120.750 113.058,119.099 110.914 C 118.717 110.417,116.699 110.330,115.560 110.761 M110.949 119.565 C 110.391 120.800,110.393 122.818,110.954 123.703 C 112.888 126.759,111.723 129.200,108.330 129.200 L 106.400 129.200 106.400 132.360 L 106.400 135.519 104.500 135.682 C 103.430 135.773,102.472 135.659,102.306 135.422 C 102.028 135.023,101.772 139.350,102.024 140.200 C 102.089 140.420,102.218 141.365,102.311 142.300 L 102.481 144.000 100.940 144.046 C 100.093 144.071,99.085 144.060,98.700 144.021 C 98.126 143.963,98.000 144.275,98.000 145.752 L 98.000 147.554 100.100 147.556 C 104.427 147.558,105.354 146.764,105.313 143.087 C 105.291 141.105,104.294 139.675,102.839 139.541 C 102.487 139.509,103.511 139.362,105.112 139.215 C 108.579 138.896,109.191 138.412,109.629 135.641 C 109.891 133.983,110.268 133.310,111.724 131.895 C 112.801 130.847,113.598 129.664,113.750 128.885 C 113.887 128.178,114.103 127.068,114.228 126.418 C 114.355 125.760,114.782 125.133,115.192 125.003 C 116.656 124.538,117.192 123.131,116.495 121.579 C 116.154 120.821,115.901 120.070,115.934 119.912 C 116.163 118.784,111.450 118.456,110.949 119.565 M162.101 124.194 C 161.549 124.593,161.105 125.451,160.950 126.419 C 160.785 127.454,160.042 128.813,158.788 130.376 C 157.510 131.968,156.785 133.305,156.598 134.413 C 156.368 135.772,156.107 136.144,155.147 136.479 C 153.639 137.004,152.767 138.724,152.497 141.710 C 152.293 143.951,152.203 144.123,150.948 144.647 C 149.137 145.404,148.515 146.530,148.194 149.626 L 147.923 152.251 146.261 152.826 C 144.771 153.341,144.556 153.584,144.169 155.189 C 143.840 156.552,143.515 157.031,142.805 157.199 C 141.262 157.563,140.373 159.200,140.074 162.228 C 139.808 164.918,139.760 165.014,138.353 165.676 C 136.758 166.426,135.600 168.991,135.600 171.775 C 135.600 173.163,135.560 173.200,134.049 173.200 C 131.946 173.200,131.606 173.766,131.326 177.736 L 131.085 181.149 129.449 181.425 C 128.550 181.577,127.614 181.975,127.370 182.309 C 126.989 182.830,126.816 182.758,126.163 181.810 C 124.328 179.147,123.773 178.801,121.318 178.787 C 118.785 178.773,118.117 178.427,117.027 176.565 C 116.630 175.886,115.741 175.015,115.052 174.630 C 114.364 174.244,113.253 173.180,112.585 172.265 C 111.402 170.643,111.304 170.597,108.793 170.479 C 105.370 170.317,104.800 169.782,104.800 166.728 C 104.800 163.953,104.303 163.600,100.398 163.600 C 97.623 163.600,97.620 163.597,97.320 160.009 C 97.131 157.755,96.941 157.172,96.337 156.980 C 95.011 156.559,95.988 156.000,98.050 156.000 C 99.151 156.000,100.380 155.825,100.780 155.611 C 102.380 154.754,102.052 149.348,100.373 148.909 C 99.948 148.798,99.600 148.548,99.600 148.353 C 99.600 147.956,95.611 147.867,94.633 148.243 C 94.126 148.437,94.000 149.148,94.000 151.810 C 94.000 156.091,93.868 156.400,92.037 156.400 C 89.849 156.400,89.600 156.876,89.600 161.058 L 89.600 164.756 87.700 164.878 L 85.800 165.000 85.675 166.743 C 85.603 167.748,85.815 169.044,86.175 169.804 C 87.695 173.007,86.786 174.712,83.467 174.880 L 81.135 174.999 81.335 176.399 C 81.445 177.170,81.715 178.610,81.935 179.600 C 82.444 181.894,81.805 182.777,79.775 182.588 C 77.513 182.378,77.069 183.172,77.381 186.870 C 77.587 189.309,77.530 190.005,77.123 190.024 C 76.835 190.037,75.933 190.098,75.119 190.161 C 74.076 190.241,73.547 190.086,73.333 189.637 C 73.144 189.242,72.947 189.987,72.814 191.600 L 72.600 194.200 71.214 194.122 C 69.359 194.018,68.882 194.510,68.890 196.515 C 68.894 197.442,68.875 199.100,68.847 200.200 L 68.796 202.200 67.352 202.275 C 65.068 202.393,64.800 202.618,64.800 204.423 C 64.800 205.615,65.033 206.260,65.640 206.752 C 68.260 208.874,66.383 213.603,62.948 213.534 C 60.681 213.488,60.037 214.037,61.105 215.105 C 62.387 216.387,62.626 218.708,61.591 219.810 C 60.670 220.790,56.960 221.381,56.631 220.600 C 56.539 220.380,56.449 220.852,56.432 221.649 C 56.414 222.446,56.776 223.948,57.235 224.986 L 58.070 226.874 57.237 227.760 C 56.576 228.464,55.990 228.637,54.390 228.601 C 52.082 228.549,51.506 229.423,52.309 231.760 C 53.700 235.813,53.321 236.800,50.375 236.800 C 48.014 236.800,48.045 236.751,47.935 240.694 C 47.859 243.432,47.765 243.822,47.291 243.348 C 46.797 242.854,46.000 242.915,46.000 243.447 C 46.000 243.557,46.168 243.544,46.372 243.417 C 46.577 243.291,46.850 243.357,46.978 243.564 C 47.113 243.783,46.536 243.893,45.605 243.827 L 44.000 243.712 43.986 245.356 C 43.973 246.825,42.849 249.795,42.814 248.451 C 42.803 248.001,42.688 247.995,42.182 248.415 C 41.842 248.697,41.666 249.195,41.791 249.521 C 41.973 249.995,41.904 250.018,41.445 249.637 C 41.047 249.307,40.791 249.292,40.608 249.587 C 40.463 249.821,40.177 249.909,39.972 249.783 C 39.768 249.656,39.600 249.751,39.600 249.994 C 39.600 250.237,39.858 250.382,40.174 250.318 C 40.489 250.253,40.748 250.380,40.748 250.600 C 40.748 250.820,40.486 250.946,40.167 250.881 C 39.091 250.660,39.790 251.778,40.986 252.191 C 42.118 252.581,42.172 252.706,42.177 254.942 C 42.184 258.100,40.900 259.360,37.942 259.103 C 35.825 258.919,34.831 259.933,36.151 260.929 C 38.110 262.409,38.171 265.792,36.256 266.732 C 34.608 267.541,31.670 267.629,31.471 266.876 C 31.365 266.473,31.274 266.627,31.246 267.259 C 31.221 267.842,31.648 269.102,32.195 270.059 C 34.032 273.271,33.114 274.936,29.484 274.977 C 26.898 275.006,26.481 276.185,28.175 278.677 C 30.161 281.600,28.835 283.790,25.231 283.541 C 22.750 283.369,22.440 284.379,24.380 286.318 C 26.478 288.417,26.477 290.859,24.377 292.821 C 22.763 294.329,22.880 294.581,25.267 294.724 C 30.026 295.010,31.624 298.056,28.600 301.080 C 27.080 302.600,26.937 302.869,27.700 302.770 C 32.257 302.178,34.335 303.230,34.833 306.380 C 35.028 307.618,35.522 308.891,36.006 309.406 C 36.655 310.097,36.774 310.553,36.538 311.448 C 36.371 312.082,36.276 312.811,36.328 313.070 C 36.379 313.328,36.236 313.654,36.011 313.793 C 35.273 314.249,35.579 315.044,36.500 315.066 C 42.235 315.199,42.473 315.302,43.180 317.927 C 43.481 319.044,43.887 319.533,44.798 319.877 C 46.006 320.333,47.193 322.309,47.206 323.887 C 47.219 325.337,47.769 325.688,49.035 325.052 C 49.676 324.731,50.672 324.286,51.250 324.065 C 52.113 323.734,52.351 323.319,52.585 321.731 C 52.909 319.535,54.054 317.445,55.423 316.548 C 56.073 316.122,56.492 315.283,56.803 313.786 C 57.206 311.844,57.396 311.571,58.770 310.965 C 60.231 310.321,60.311 310.184,60.794 307.481 C 61.326 304.502,62.465 302.800,63.926 302.800 C 64.555 302.800,64.727 302.419,64.913 300.619 C 65.203 297.807,65.895 296.408,67.489 295.407 C 68.841 294.558,68.977 294.306,69.382 291.907 C 69.549 290.916,70.228 289.772,71.399 288.507 C 72.737 287.062,73.231 286.164,73.436 284.800 C 73.649 283.388,74.072 282.655,75.394 281.400 C 76.614 280.243,77.226 279.247,77.603 277.800 C 78.362 274.891,79.088 273.643,80.182 273.369 C 80.957 273.174,81.234 272.733,81.572 271.157 C 82.277 267.870,83.057 266.408,84.346 265.959 C 85.512 265.553,85.984 264.672,85.995 262.884 C 86.003 261.471,87.522 258.818,88.605 258.325 C 89.528 257.904,89.991 256.944,90.591 254.200 C 90.735 253.540,91.546 252.280,92.394 251.400 C 93.354 250.403,94.110 249.121,94.400 248.000 C 95.000 245.679,95.799 244.456,97.021 243.992 C 97.650 243.753,98.009 243.295,98.024 242.710 C 98.076 240.699,99.775 237.072,100.974 236.411 C 101.883 235.910,102.250 235.317,102.602 233.782 C 103.122 231.513,104.237 229.200,104.810 229.200 C 105.594 229.200,106.800 227.571,106.809 226.500 C 106.821 224.908,108.143 222.235,109.527 221.002 C 110.225 220.380,110.832 219.353,110.986 218.533 C 111.296 216.882,112.012 215.200,112.406 215.200 C 113.207 215.200,114.711 213.139,115.185 211.391 C 115.954 208.555,116.697 207.230,117.800 206.727 C 118.388 206.459,118.866 205.806,119.032 205.045 C 119.524 202.788,121.064 199.781,122.063 199.126 C 122.744 198.681,123.259 197.717,123.737 195.995 C 124.244 194.172,124.855 193.073,126.026 191.879 C 126.904 190.983,127.696 189.879,127.786 189.425 C 127.876 188.971,128.054 188.108,128.181 187.507 C 128.308 186.905,129.197 185.530,130.156 184.450 C 131.369 183.084,132.050 181.861,132.393 180.431 C 132.756 178.916,133.222 178.119,134.164 177.400 C 135.103 176.684,135.583 175.865,135.974 174.313 C 136.723 171.338,137.432 170.108,138.807 169.396 C 139.463 169.057,140.000 168.521,140.000 168.205 C 140.000 166.968,141.783 162.955,142.772 161.967 C 143.346 161.393,144.140 159.893,144.537 158.633 C 145.026 157.083,145.760 155.856,146.806 154.840 C 147.901 153.778,148.492 152.762,148.825 151.369 C 149.323 149.290,150.893 146.603,151.817 146.249 C 152.119 146.133,152.670 144.996,153.040 143.723 C 153.472 142.237,154.187 140.933,155.036 140.084 C 155.763 139.357,156.481 138.365,156.630 137.881 C 157.736 134.297,158.544 132.746,159.584 132.208 C 160.399 131.787,160.782 131.215,160.984 130.114 C 162.019 124.496,165.685 122.710,167.797 126.795 C 168.133 127.445,168.766 128.168,169.203 128.402 C 170.127 128.896,171.291 131.037,172.029 133.600 C 172.354 134.726,173.043 135.822,173.870 136.526 C 174.861 137.370,175.410 138.373,176.059 140.526 C 176.682 142.591,177.293 143.738,178.230 144.600 C 179.111 145.410,179.808 146.655,180.377 148.431 C 180.945 150.206,181.669 151.498,182.602 152.402 C 183.507 153.280,184.206 154.502,184.625 155.946 C 184.981 157.170,185.875 158.861,186.635 159.749 C 187.859 161.179,188.792 163.314,188.798 164.699 C 188.799 164.973,189.405 165.873,190.145 166.699 C 192.220 169.014,192.863 170.619,193.100 174.074 C 193.282 176.723,193.805 178.707,193.893 177.082 C 193.907 176.817,194.015 175.748,194.131 174.706 C 194.248 173.664,194.202 172.725,194.030 172.618 C 193.858 172.512,193.603 171.335,193.463 170.002 C 193.130 166.816,192.296 165.239,190.783 164.937 C 190.079 164.796,189.600 164.447,189.600 164.076 C 189.600 160.969,187.770 156.938,186.262 156.722 C 185.581 156.625,185.355 156.234,185.151 154.800 C 184.774 152.154,183.817 150.158,182.533 149.340 C 181.056 148.399,180.813 148.026,180.806 146.684 C 180.798 145.130,179.418 142.585,178.027 141.557 C 177.117 140.884,176.801 140.264,176.591 138.738 C 176.335 136.871,175.706 135.798,173.697 133.801 C 173.162 133.268,172.611 131.993,172.345 130.669 C 171.347 125.698,165.305 121.880,162.101 124.194 M194.083 181.668 L 194.200 185.000 196.156 185.124 C 197.915 185.236,198.940 184.864,199.034 184.080 C 199.052 183.926,199.277 183.293,199.534 182.674 C 200.378 180.635,199.191 178.795,197.081 178.873 C 196.376 178.899,195.387 178.788,194.883 178.628 C 193.972 178.337,193.967 178.354,194.083 181.668 M198.031 189.286 C 198.136 193.484,198.107 193.426,200.101 193.544 C 202.146 193.665,201.885 193.220,202.125 197.000 C 202.236 198.760,202.366 200.245,202.414 200.300 C 202.508 200.409,202.671 201.006,202.750 201.532 C 202.778 201.714,203.775 201.903,204.967 201.951 C 208.121 202.078,209.988 199.683,209.138 196.600 C 208.801 195.381,206.467 193.111,205.907 193.458 C 205.738 193.562,205.600 193.446,205.600 193.200 C 205.600 192.954,205.411 192.870,205.180 193.013 C 204.905 193.182,204.791 192.654,204.852 191.492 C 205.022 188.200,203.690 186.548,200.800 186.464 C 200.250 186.449,199.383 186.331,198.874 186.204 C 197.958 185.974,197.949 186.005,198.031 189.286 M70.800 194.924 C 70.800 195.211,70.535 195.796,70.212 196.224 C 69.680 196.926,69.670 196.875,70.100 195.700 C 70.611 194.303,70.800 194.093,70.800 194.924 M206.578 202.756 C 205.944 203.389,206.469 205.204,207.300 205.252 C 207.795 205.280,208.694 205.333,209.299 205.370 C 211.032 205.476,211.341 206.044,210.869 208.255 C 210.563 209.691,210.578 210.265,210.928 210.488 C 211.282 210.713,211.275 210.789,210.900 210.794 C 210.332 210.801,210.244 211.935,210.750 212.733 C 210.952 213.051,211.830 213.267,212.923 213.267 C 215.276 213.267,215.802 213.871,215.396 216.104 C 215.226 217.037,215.068 218.880,215.044 220.200 L 215.000 222.600 217.439 222.729 C 221.005 222.918,222.404 219.660,219.830 217.161 C 218.797 216.157,218.312 215.257,218.050 213.856 C 217.576 211.318,217.303 211.108,214.113 210.827 C 211.678 210.612,211.491 210.536,212.286 210.087 C 214.088 209.070,214.357 205.209,212.729 203.736 C 211.990 203.067,207.053 202.281,206.578 202.756 M45.333 240.171 C 45.454 240.485,45.259 240.980,44.899 241.271 C 44.426 241.655,44.329 241.663,44.547 241.300 C 44.712 241.025,44.657 240.800,44.424 240.800 C 44.191 240.800,44.000 241.166,44.000 241.614 C 44.000 242.675,45.414 242.017,45.809 240.771 C 45.967 240.273,46.297 240.028,46.636 240.159 C 46.946 240.278,47.200 240.201,47.200 239.987 C 47.200 239.774,46.731 239.600,46.157 239.600 C 45.418 239.600,45.178 239.766,45.333 240.171 M40.412 248.384 C 40.088 248.589,39.978 248.901,40.166 249.078 C 40.355 249.255,40.590 249.174,40.689 248.898 C 40.788 248.621,41.021 248.489,41.207 248.604 C 41.393 248.719,41.658 248.630,41.796 248.407 C 42.109 247.900,41.201 247.885,40.412 248.384 " stroke="none" fill="#4867d6" fill-rule="evenodd"></path><path id="path4" d="M160.667 27.467 C 160.520 27.613,160.400 28.894,160.400 30.312 L 160.400 32.890 163.100 32.727 C 167.268 32.476,168.189 31.862,168.247 29.294 L 168.295 27.200 164.614 27.200 C 162.590 27.200,160.813 27.320,160.667 27.467 M152.210 40.319 C 151.867 41.211,151.965 41.327,152.609 40.792 C 153.124 40.365,153.175 40.399,152.941 41.009 C 152.730 41.559,152.799 41.653,153.232 41.401 C 153.544 41.220,153.667 41.219,153.503 41.399 C 153.340 41.579,153.430 42.010,153.703 42.356 C 154.112 42.875,154.008 42.864,153.116 42.294 L 152.032 41.603 152.116 42.801 C 152.164 43.478,152.428 43.999,152.724 43.999 C 153.036 44.000,153.126 43.798,152.947 43.500 C 152.710 43.107,152.779 43.108,153.270 43.505 C 153.983 44.082,155.086 43.187,154.611 42.418 C 154.185 41.729,155.059 41.947,155.651 42.677 C 155.953 43.049,155.995 43.231,155.745 43.081 C 155.495 42.931,155.045 43.111,154.745 43.479 C 154.267 44.068,154.289 44.116,154.933 43.875 C 155.336 43.724,155.830 43.600,156.031 43.600 C 156.618 43.600,156.233 39.878,155.625 39.675 C 155.259 39.553,155.194 39.671,155.421 40.048 C 155.693 40.500,155.642 40.509,155.135 40.100 C 154.349 39.463,152.485 39.603,152.210 40.319 M227.900 43.865 C 228.522 44.116,228.565 44.837,227.950 44.700 C 227.703 44.645,227.418 44.825,227.317 45.100 C 227.216 45.376,227.438 45.600,227.813 45.600 C 228.325 45.600,228.445 45.850,228.299 46.614 C 228.193 47.171,228.200 47.533,228.316 47.417 C 228.432 47.302,228.768 47.407,229.063 47.652 C 229.358 47.897,229.600 47.980,229.600 47.835 C 229.600 47.690,229.960 47.765,230.400 48.000 C 230.842 48.237,231.200 48.264,231.200 48.061 C 231.200 47.859,230.839 47.599,230.398 47.484 C 229.861 47.343,229.678 47.063,229.843 46.632 C 230.030 46.144,229.911 46.049,229.345 46.233 C 228.790 46.413,228.739 46.376,229.143 46.088 C 229.483 45.844,229.534 45.607,229.280 45.450 C 229.057 45.312,228.969 44.839,229.084 44.400 C 229.251 43.761,229.102 43.606,228.347 43.632 C 227.826 43.649,227.625 43.754,227.900 43.865 M230.750 44.200 C 230.722 44.310,230.675 44.535,230.644 44.700 C 230.613 44.865,230.478 45.180,230.344 45.400 C 230.210 45.620,230.226 46.147,230.380 46.571 C 230.630 47.259,230.688 47.270,230.917 46.671 C 231.071 46.270,230.979 45.998,230.687 45.994 C 230.347 45.990,230.333 45.899,230.639 45.694 C 230.881 45.532,231.076 45.085,231.073 44.700 C 231.067 44.052,230.865 43.739,230.750 44.200 M248.079 82.400 C 248.129 83.060,248.340 83.600,248.547 83.600 C 248.754 83.600,248.626 83.930,248.261 84.332 C 247.897 84.735,247.719 85.185,247.866 85.332 C 248.286 85.753,250.725 85.645,251.004 85.193 C 251.142 84.970,251.423 84.891,251.628 85.017 C 252.524 85.571,251.888 84.377,250.798 83.460 C 250.117 82.887,249.774 82.340,250.005 82.197 C 250.472 81.908,250.151 81.200,249.553 81.200 C 249.333 81.200,249.280 81.425,249.435 81.700 C 249.661 82.100,249.610 82.100,249.179 81.700 C 248.316 80.900,247.981 81.113,248.079 82.400 M250.510 81.999 C 250.477 82.439,250.769 82.969,251.158 83.178 C 251.689 83.462,251.867 83.407,251.867 82.961 C 251.867 82.593,251.625 82.449,251.233 82.584 C 250.747 82.751,250.765 82.674,251.312 82.248 C 251.951 81.751,251.605 81.200,250.652 81.200 C 250.607 81.200,250.543 81.560,250.510 81.999 M268.880 119.942 C 268.834 120.497,269.022 121.094,269.298 121.269 C 269.698 121.523,269.699 121.589,269.300 121.594 C 269.025 121.597,268.800 121.949,268.800 122.375 C 268.800 122.907,269.054 123.131,269.610 123.089 C 270.150 123.049,270.350 122.824,270.209 122.414 C 270.071 122.012,270.199 122.059,270.580 122.550 C 270.900 122.963,271.429 123.198,271.756 123.072 C 272.110 122.937,272.427 123.118,272.540 123.522 C 272.645 123.895,272.701 123.362,272.665 122.338 C 272.626 121.220,272.440 120.572,272.200 120.715 C 271.980 120.846,272.053 120.641,272.363 120.260 C 272.825 119.690,272.833 119.480,272.404 119.083 C 271.990 118.700,271.949 118.716,272.203 119.162 C 272.440 119.577,272.377 119.632,271.962 119.373 C 271.198 118.896,270.348 118.793,270.605 119.207 C 270.719 119.393,270.630 119.658,270.407 119.796 C 270.183 119.934,270.000 119.797,270.000 119.490 C 270.000 118.489,268.966 118.906,268.880 119.942 M107.100 123.115 C 106.521 123.234,106.400 123.703,106.400 125.829 L 106.400 128.400 108.320 128.400 C 110.575 128.400,111.200 127.911,111.200 126.146 C 111.200 123.170,110.248 122.467,107.100 123.115 M163.016 125.821 C 162.496 126.382,161.853 127.777,161.588 128.921 C 161.254 130.362,160.644 131.491,159.601 132.600 C 158.609 133.654,157.798 135.110,157.225 136.868 C 156.666 138.584,156.021 139.756,155.420 140.150 C 154.864 140.515,154.057 141.881,153.432 143.517 C 152.853 145.031,151.842 146.785,151.185 147.414 C 150.427 148.141,149.715 149.477,149.236 151.071 C 148.746 152.707,147.940 154.199,146.928 155.350 C 146.028 156.372,145.080 158.044,144.679 159.315 C 144.298 160.524,143.691 161.758,143.330 162.057 C 142.616 162.647,140.401 167.079,140.400 167.916 C 140.400 168.200,139.679 169.100,138.798 169.916 C 137.526 171.094,137.032 171.977,136.399 174.200 C 135.859 176.102,135.292 177.228,134.632 177.711 C 134.067 178.125,133.204 179.619,132.566 181.289 C 131.937 182.934,130.916 184.711,130.170 185.457 C 129.358 186.269,128.625 187.598,128.219 188.995 C 127.829 190.334,127.009 191.852,126.178 192.772 C 125.413 193.618,124.427 195.360,123.986 196.642 C 123.544 197.924,122.758 199.430,122.237 199.987 C 121.157 201.144,120.332 202.703,119.596 204.981 C 119.314 205.851,118.512 207.111,117.813 207.781 C 116.955 208.605,116.245 209.937,115.625 211.888 C 115.037 213.737,114.456 214.855,114.007 214.998 C 112.796 215.382,111.964 216.645,111.334 219.059 C 110.910 220.682,110.257 221.900,109.187 223.060 C 108.221 224.108,107.547 225.299,107.372 226.264 C 107.015 228.240,106.584 229.065,104.958 230.883 C 104.202 231.730,103.356 233.317,102.989 234.580 C 102.635 235.797,102.028 237.020,101.641 237.296 C 100.588 238.049,99.704 239.573,98.806 242.184 C 98.363 243.471,97.619 244.791,97.154 245.117 C 96.273 245.734,94.695 248.921,94.241 251.000 C 94.082 251.730,93.532 252.456,92.838 252.854 C 91.967 253.352,91.481 254.160,90.791 256.254 C 90.201 258.045,89.355 259.583,88.357 260.676 C 87.516 261.598,86.716 262.858,86.581 263.476 C 86.117 265.593,85.508 266.785,84.159 268.216 C 83.325 269.100,82.556 270.518,82.149 271.924 C 81.787 273.176,81.058 274.603,80.528 275.096 C 79.537 276.020,77.611 279.758,77.604 280.772 C 77.602 281.086,76.999 281.896,76.264 282.572 C 75.346 283.415,74.637 284.673,74.003 286.584 C 73.398 288.406,72.637 289.788,71.800 290.584 C 70.983 291.361,70.208 292.746,69.656 294.417 C 69.081 296.155,68.336 297.461,67.437 298.310 C 66.501 299.192,65.931 300.220,65.591 301.637 C 65.249 303.061,64.567 304.286,63.353 305.653 C 62.130 307.030,61.527 308.116,61.341 309.277 C 61.175 310.314,60.596 311.471,59.793 312.367 C 58.264 314.073,57.445 315.600,56.828 317.893 C 56.578 318.824,56.043 319.763,55.640 319.978 C 54.855 320.399,52.900 324.200,52.538 326.011 C 52.375 326.824,51.920 327.267,50.793 327.710 C 49.439 328.242,47.592 330.525,48.103 331.036 C 49.143 332.076,53.455 329.129,54.593 326.600 C 55.088 325.500,56.045 323.916,56.719 323.079 C 57.394 322.243,58.069 320.983,58.221 320.279 C 58.612 318.464,59.507 316.792,60.845 315.380 C 61.558 314.628,62.192 313.340,62.500 312.017 C 62.858 310.484,63.482 309.337,64.692 307.987 C 65.898 306.642,66.559 305.430,66.992 303.765 C 67.428 302.091,68.040 300.972,69.153 299.815 C 70.128 298.800,70.964 297.382,71.401 296.000 C 71.784 294.790,72.607 293.260,73.230 292.600 C 73.853 291.940,74.886 290.132,75.525 288.581 C 76.165 287.031,77.154 285.259,77.724 284.644 C 78.294 284.029,79.044 282.672,79.391 281.628 C 79.738 280.583,80.543 279.229,81.182 278.618 C 82.413 277.438,82.892 276.460,83.606 273.664 C 83.869 272.638,84.684 271.240,85.598 270.248 C 86.621 269.139,87.310 267.896,87.631 266.585 C 88.270 263.967,88.669 263.233,90.229 261.800 C 91.017 261.076,91.877 259.647,92.395 258.200 C 92.867 256.880,93.758 255.260,94.375 254.600 C 94.992 253.940,95.828 252.508,96.234 251.419 C 96.639 250.329,97.542 248.689,98.241 247.773 C 98.940 246.858,99.644 245.680,99.807 245.155 C 100.333 243.455,101.681 241.031,102.834 239.709 C 103.454 238.998,104.081 237.738,104.229 236.909 C 104.522 235.259,105.845 232.800,106.439 232.800 C 107.096 232.800,108.368 230.284,108.646 228.435 C 108.849 227.076,109.338 226.190,110.671 224.765 C 112.138 223.197,112.490 222.501,112.807 220.544 C 113.138 218.500,113.412 217.995,114.947 216.600 C 116.108 215.544,117.004 214.232,117.582 212.742 C 118.064 211.500,118.890 210.079,119.416 209.585 C 119.943 209.090,120.664 207.810,121.019 206.741 C 121.374 205.673,122.277 204.065,123.026 203.169 C 123.774 202.273,124.643 200.677,124.957 199.621 C 125.684 197.171,126.520 195.626,127.711 194.527 C 128.613 193.694,129.600 191.252,129.600 189.854 C 129.600 189.494,130.341 188.459,131.247 187.553 C 132.207 186.593,133.309 184.884,133.889 183.458 C 134.436 182.112,135.386 180.439,135.999 179.740 C 137.095 178.491,137.519 177.494,138.393 174.099 C 138.671 173.019,139.213 172.148,139.875 171.714 C 140.450 171.338,141.323 170.123,141.816 169.015 C 142.309 167.907,143.276 166.296,143.964 165.435 C 144.652 164.575,145.496 162.904,145.840 161.723 C 146.209 160.451,147.089 158.853,147.995 157.806 C 149.428 156.150,149.981 154.968,150.570 152.307 C 150.703 151.705,151.592 150.336,152.544 149.263 C 153.640 148.029,154.446 146.639,154.738 145.481 C 155.009 144.405,155.840 142.910,156.753 141.855 C 157.642 140.827,158.661 139.011,159.134 137.608 C 159.610 136.201,160.454 134.697,161.116 134.078 C 161.817 133.422,162.620 131.944,163.166 130.304 C 163.659 128.822,164.203 127.522,164.375 127.415 C 164.870 127.110,168.442 131.775,170.200 135.024 C 171.080 136.649,172.187 138.334,172.660 138.768 C 173.133 139.202,173.923 140.768,174.416 142.247 C 174.980 143.942,175.796 145.423,176.622 146.249 C 177.343 146.970,178.028 147.884,178.143 148.280 C 178.258 148.676,178.549 149.763,178.790 150.695 C 179.073 151.790,179.834 152.994,180.938 154.095 C 182.321 155.474,182.747 156.258,183.166 158.200 C 183.573 160.089,184.008 160.916,185.210 162.085 C 186.390 163.232,186.842 164.074,187.199 165.796 C 187.533 167.406,188.095 168.523,189.229 169.833 C 191.016 171.898,191.341 172.843,191.138 175.391 C 191.002 177.096,191.052 177.200,192.003 177.200 L 193.013 177.200 192.782 174.065 C 192.551 170.913,191.418 168.143,189.819 166.816 C 189.474 166.530,188.915 165.343,188.577 164.180 C 188.239 163.016,187.338 161.285,186.574 160.332 C 185.811 159.380,184.895 157.610,184.538 156.400 C 184.113 154.957,183.420 153.755,182.523 152.906 C 181.581 152.014,180.854 150.711,180.182 148.706 C 179.546 146.812,178.807 145.452,178.059 144.800 C 177.303 144.140,176.607 142.847,176.015 141.000 C 175.402 139.091,174.685 137.779,173.760 136.876 C 173.014 136.148,172.287 135.068,172.145 134.476 C 171.732 132.755,170.403 130.327,168.929 128.600 C 165.263 124.304,164.677 124.029,163.016 125.821 M272.800 129.104 C 272.800 130.770,272.934 131.142,273.600 131.316 C 274.044 131.432,274.400 131.328,274.400 131.083 C 274.400 130.780,274.552 130.792,274.880 131.120 C 275.144 131.384,275.669 131.600,276.047 131.600 C 276.424 131.600,276.824 131.825,276.935 132.100 C 277.046 132.375,277.151 132.223,277.168 131.762 C 277.201 130.897,275.941 129.443,275.468 129.799 C 275.320 129.910,275.305 129.865,275.433 129.700 C 275.773 129.263,276.554 129.309,276.894 129.787 C 277.261 130.303,277.243 128.818,276.872 128.000 C 276.722 127.670,276.060 127.347,275.400 127.282 C 274.476 127.191,274.338 127.259,274.800 127.576 C 275.130 127.802,275.211 127.991,274.980 127.994 C 274.749 127.997,274.318 127.775,274.021 127.500 C 273.583 127.093,273.545 127.112,273.818 127.600 C 274.107 128.117,274.060 128.124,273.477 127.651 C 272.858 127.149,272.800 127.274,272.800 129.104 M289.054 157.108 C 288.010 160.823,288.388 161.600,291.241 161.600 C 293.417 161.600,293.627 161.283,293.512 158.183 L 293.452 156.566 291.350 156.491 C 289.660 156.431,289.211 156.552,289.054 157.108 M294.394 165.547 C 294.389 166.116,294.336 166.123,293.984 165.600 C 293.689 165.162,293.610 165.485,293.690 166.800 C 293.796 168.531,293.848 168.600,295.064 168.597 C 295.759 168.595,296.243 168.730,296.140 168.897 C 296.037 169.063,296.233 169.200,296.576 169.200 C 296.919 169.200,297.218 169.425,297.240 169.700 C 297.262 169.975,297.424 169.750,297.600 169.200 C 298.121 167.573,298.058 167.205,297.300 167.466 C 296.687 167.678,296.693 167.635,297.349 167.123 C 297.864 166.721,298.014 166.276,297.830 165.695 C 297.483 164.600,294.404 164.467,294.394 165.547 M81.460 169.387 C 81.322 169.747,81.375 169.939,81.577 169.814 C 81.779 169.689,82.058 169.770,82.196 169.993 C 82.334 170.217,82.194 170.400,81.884 170.400 C 81.178 170.400,81.061 172.587,81.737 173.148 C 82.002 173.368,82.980 173.446,83.910 173.321 L 85.600 173.095 85.600 171.007 L 85.600 168.920 84.000 168.958 C 83.120 168.979,82.397 169.177,82.394 169.398 C 82.391 169.619,82.236 169.560,82.050 169.266 C 81.779 168.839,81.661 168.864,81.460 169.387 M297.941 173.076 C 297.908 173.254,297.862 174.263,297.838 175.318 L 297.795 177.235 299.764 177.118 C 301.514 177.013,303.184 174.800,301.513 174.800 C 301.341 174.800,301.200 174.609,301.200 174.376 C 301.200 174.143,301.384 174.067,301.610 174.206 C 301.835 174.345,301.970 174.221,301.910 173.930 C 301.784 173.323,300.938 172.869,299.857 172.828 C 299.396 172.811,299.192 173.002,299.319 173.333 C 299.432 173.627,299.279 173.867,298.979 173.867 C 298.680 173.867,298.520 173.729,298.624 173.561 C 298.728 173.393,298.630 173.142,298.407 173.004 C 298.183 172.866,297.973 172.898,297.941 173.076 M306.140 186.400 C 306.140 188.270,306.209 189.035,306.293 188.100 C 306.377 187.165,306.377 185.635,306.293 184.700 C 306.209 183.765,306.140 184.530,306.140 186.400 M310.090 194.100 C 307.583 197.175,309.411 200.878,313.000 199.996 C 313.220 199.942,313.625 199.891,313.900 199.882 C 314.252 199.871,314.400 199.015,314.400 196.986 L 314.400 194.105 312.900 193.857 C 310.808 193.511,310.553 193.533,310.090 194.100 M313.689 204.123 L 312.888 206.200 313.690 207.075 C 314.326 207.768,314.865 207.928,316.283 207.841 C 317.778 207.749,318.132 207.869,318.424 208.565 C 318.661 209.129,318.759 208.364,318.726 206.211 C 318.672 202.570,318.432 202.189,316.145 202.106 C 314.504 202.046,314.483 202.064,313.689 204.123 M206.400 206.570 C 206.400 207.310,207.856 208.141,208.631 207.843 C 208.944 207.723,209.200 207.791,209.200 207.994 C 209.200 208.198,208.570 208.482,207.800 208.626 C 206.372 208.894,206.187 209.093,206.706 209.800 C 207.186 210.453,207.994 210.449,207.743 209.795 C 207.617 209.468,207.714 209.200,207.957 209.200 C 208.201 209.200,208.400 209.478,208.400 209.819 C 208.400 210.349,208.538 210.335,209.372 209.719 C 210.433 208.935,209.945 207.283,208.717 207.500 C 208.406 207.555,207.757 207.233,207.276 206.785 C 206.591 206.147,206.400 206.100,206.400 206.570 M61.200 206.857 C 61.200 207.072,61.060 207.161,60.889 207.055 C 60.718 206.949,60.532 208.001,60.477 209.391 L 60.376 211.920 62.014 211.552 C 62.914 211.350,63.840 211.301,64.070 211.443 C 64.982 212.007,65.529 209.468,64.957 207.333 C 64.712 206.421,61.200 205.976,61.200 206.857 M318.943 210.750 C 318.754 210.888,318.577 211.180,318.549 211.400 C 318.521 211.620,318.380 212.461,318.237 213.269 C 317.933 214.977,318.323 215.361,320.388 215.387 C 321.456 215.400,321.898 215.635,322.294 216.402 C 322.754 217.293,322.801 217.088,322.725 214.502 C 322.655 212.107,322.515 211.563,321.920 211.375 C 321.524 211.249,321.200 211.001,321.200 210.823 C 321.200 210.443,319.441 210.387,318.943 210.750 M210.500 215.814 C 210.525 218.324,210.728 218.544,213.119 218.655 L 214.838 218.735 214.719 216.484 L 214.600 214.233 213.000 214.216 C 212.120 214.207,211.192 214.065,210.939 213.900 C 210.609 213.686,210.484 214.232,210.500 215.814 M57.568 215.784 C 57.551 216.233,57.446 216.374,57.334 216.098 C 57.223 215.821,56.967 215.697,56.766 215.821 C 56.161 216.195,56.353 216.800,57.076 216.800 C 57.667 216.800,57.654 216.875,56.976 217.392 C 56.345 217.874,56.303 218.052,56.748 218.346 C 57.502 218.842,60.400 218.844,60.400 218.348 C 60.400 218.124,60.001 218.056,59.500 218.194 L 58.600 218.442 59.500 217.657 C 60.985 216.362,60.714 214.886,59.000 214.932 C 57.881 214.961,57.594 215.133,57.568 215.784 M325.200 219.114 C 325.200 219.287,325.560 219.429,326.000 219.429 C 326.440 219.429,326.800 219.287,326.800 219.114 C 326.800 218.941,326.440 218.800,326.000 218.800 C 325.560 218.800,325.200 218.941,325.200 219.114 M326.679 220.557 C 326.515 220.974,326.475 221.409,326.591 221.524 C 326.955 221.889,327.276 221.291,327.124 220.531 C 326.983 219.835,326.962 219.836,326.679 220.557 M330.552 232.053 C 330.180 232.464,329.985 232.800,330.118 232.800 C 330.250 232.800,330.094 233.434,329.770 234.209 C 328.930 236.220,330.214 237.561,332.793 237.365 C 335.097 237.191,335.262 236.950,335.121 233.959 L 335.000 231.400 333.114 231.353 C 331.738 231.318,331.046 231.507,330.552 232.053 M334.313 241.504 C 333.141 244.153,334.642 246.360,336.999 245.456 C 337.330 245.329,337.600 245.397,337.600 245.608 C 337.600 245.819,338.057 245.953,338.615 245.907 C 339.616 245.824,339.629 245.781,339.515 242.811 L 339.400 239.800 337.254 239.753 L 335.108 239.706 334.313 241.504 M150.926 245.236 C 150.307 246.136,149.110 247.693,148.268 248.698 C 147.425 249.702,146.303 251.501,145.775 252.696 C 145.246 253.890,144.378 255.387,143.844 256.021 C 143.311 256.655,142.493 258.318,142.027 259.717 C 141.479 261.365,140.696 262.732,139.805 263.596 C 138.797 264.572,138.295 265.529,137.931 267.165 C 137.554 268.863,137.021 269.843,135.715 271.244 C 134.632 272.405,133.697 273.957,133.188 275.435 C 132.744 276.726,131.858 278.326,131.220 278.991 C 130.582 279.656,129.692 281.175,129.243 282.367 C 128.793 283.559,127.882 285.211,127.218 286.038 C 125.180 288.574,124.929 289.446,125.873 290.712 L 126.686 291.800 178.843 292.095 C 207.529 292.257,260.970 292.347,297.600 292.295 L 364.200 292.200 364.267 288.933 L 364.335 285.667 361.883 285.733 L 359.431 285.800 358.815 287.683 C 358.204 289.554,358.187 289.568,356.074 289.832 C 353.803 290.117,296.000 289.627,296.000 289.323 C 296.000 287.954,297.258 287.801,310.171 287.600 L 323.000 287.400 324.924 286.362 L 326.848 285.323 325.800 284.637 C 324.062 283.498,319.147 281.922,316.700 281.720 C 314.004 281.496,313.786 281.111,315.984 280.452 C 320.721 279.033,317.753 274.800,312.022 274.800 C 309.312 274.800,308.714 274.281,308.228 271.505 C 307.869 269.462,307.163 269.200,302.007 269.200 L 297.561 269.200 296.789 267.500 C 296.365 266.565,296.014 265.511,296.009 265.158 C 295.987 263.550,294.157 262.400,291.619 262.400 C 288.771 262.400,287.865 261.744,287.419 259.355 C 286.954 256.866,286.803 256.800,281.589 256.800 L 276.876 256.800 276.338 255.100 C 275.709 253.114,274.374 252.460,270.871 252.423 C 268.892 252.402,267.276 251.657,267.886 251.048 C 268.022 250.911,267.733 250.800,267.243 250.800 C 266.753 250.800,266.456 250.633,266.582 250.430 C 266.896 249.920,262.002 249.649,247.600 249.377 C 236.627 249.169,235.340 249.075,234.800 248.443 C 233.817 247.291,230.324 244.977,228.492 244.264 C 226.943 243.662,223.292 243.600,189.418 243.600 L 152.052 243.600 150.926 245.236 M338.274 250.005 L 337.148 252.010 338.387 253.248 C 339.204 254.066,339.888 254.418,340.398 254.285 C 340.823 254.174,341.386 254.343,341.650 254.660 C 342.037 255.126,342.193 255.137,342.459 254.719 C 342.712 254.319,342.789 254.315,342.794 254.700 C 342.819 256.717,343.420 254.595,343.474 252.300 C 343.572 248.151,343.495 248.000,341.273 248.000 C 339.441 248.001,339.375 248.045,338.274 250.005 M36.119 252.481 C 35.894 252.766,35.683 253.900,35.650 255.000 L 35.591 257.000 37.796 256.863 C 40.286 256.708,40.341 256.616,39.816 253.500 C 39.558 251.967,38.067 251.321,37.374 252.443 C 37.176 252.763,37.021 252.758,36.815 252.424 C 36.604 252.083,36.422 252.098,36.119 252.481 M343.570 256.494 C 342.628 259.865,343.090 261.774,344.701 261.162 C 345.460 260.873,345.820 260.906,346.061 261.284 C 346.241 261.568,346.396 261.620,346.407 261.400 C 346.417 261.180,346.690 261.349,347.013 261.776 C 347.573 262.518,347.603 262.500,347.663 261.376 C 347.697 260.729,347.772 259.660,347.830 259.000 C 347.960 257.506,347.670 256.400,347.149 256.400 C 346.931 256.400,346.888 256.625,347.053 256.900 C 347.279 257.276,347.211 257.294,346.777 256.971 C 346.273 256.596,343.651 256.206,343.570 256.494 M31.743 260.893 C 31.288 261.629,31.275 262.842,31.723 262.692 C 31.939 262.620,32.167 262.075,32.230 261.481 C 32.356 260.302,32.214 260.130,31.743 260.893 M351.365 268.300 C 351.532 268.595,351.420 268.800,351.093 268.800 C 350.507 268.800,348.900 270.324,348.773 271.000 C 348.732 271.220,348.607 271.639,348.495 271.930 C 347.585 274.300,349.907 276.240,353.970 276.505 C 355.847 276.628,356.580 277.362,355.248 277.785 C 354.108 278.146,352.978 281.238,353.576 282.356 C 354.374 283.847,355.843 284.522,357.808 284.300 C 358.978 284.168,359.615 284.255,359.644 284.549 C 359.767 285.817,360.301 281.491,360.254 279.600 C 360.195 277.184,360.503 277.415,357.100 277.237 C 356.507 277.206,356.399 276.789,356.396 274.500 C 356.387 269.283,356.186 268.800,354.028 268.800 C 353.000 268.800,351.918 268.575,351.621 268.300 C 351.190 267.900,351.139 267.900,351.365 268.300 M19.233 286.339 C 18.958 286.852,18.985 287.236,19.319 287.597 C 19.583 287.883,19.605 288.009,19.367 287.876 C 19.128 287.744,18.933 287.897,18.933 288.218 C 18.933 288.966,19.369 288.960,19.996 288.204 C 20.268 287.877,20.678 287.725,20.907 287.866 C 21.150 288.016,21.204 287.930,21.036 287.659 C 20.878 287.403,21.039 286.904,21.394 286.549 C 21.748 286.195,21.915 285.791,21.764 285.652 C 21.614 285.514,21.410 285.625,21.312 285.900 C 21.214 286.175,20.958 286.400,20.743 286.400 C 20.528 286.400,20.464 286.220,20.600 286.000 C 20.736 285.780,20.573 285.600,20.238 285.600 C 19.902 285.600,19.450 285.932,19.233 286.339 M20.100 290.265 C 19.825 290.376,19.614 290.767,19.632 291.133 C 19.651 291.549,19.739 291.612,19.865 291.300 C 19.976 291.025,20.242 290.800,20.457 290.800 C 20.672 290.800,20.719 291.008,20.562 291.262 C 20.389 291.541,20.452 291.615,20.721 291.449 C 21.049 291.246,20.987 289.850,20.657 290.032 C 20.626 290.049,20.375 290.154,20.100 290.265 M18.980 291.878 C 19.061 292.388,19.407 292.578,20.157 292.523 C 20.741 292.481,21.121 292.604,21.003 292.796 C 20.884 292.988,20.954 293.248,21.158 293.374 C 21.363 293.501,21.487 293.313,21.435 292.957 C 21.344 292.335,20.000 291.279,20.000 291.829 C 20.000 291.977,19.744 291.886,19.432 291.627 C 18.974 291.247,18.887 291.295,18.980 291.878 M27.285 307.200 L 27.400 310.200 29.512 310.321 C 31.590 310.441,31.632 310.420,32.212 309.034 C 33.506 305.937,32.648 304.561,29.285 304.339 L 27.170 304.200 27.285 307.200 M35.600 319.700 L 35.600 322.800 37.776 322.800 C 39.853 322.800,40.878 323.257,40.007 323.796 C 39.261 324.257,39.588 325.458,40.608 326.004 C 41.364 326.409,41.488 326.635,41.108 326.909 C 40.755 327.164,40.824 327.203,41.333 327.038 C 41.736 326.907,42.151 326.800,42.256 326.800 C 42.361 326.800,42.316 326.575,42.155 326.300 C 41.994 326.025,42.223 326.115,42.664 326.501 C 43.713 327.419,44.001 327.059,43.997 324.833 C 43.995 323.217,43.853 322.919,42.797 322.319 C 41.791 321.746,41.600 321.390,41.600 320.088 C 41.600 317.929,40.421 316.917,37.700 316.738 L 35.600 316.600 35.600 319.700 " stroke="none" fill="#3c1ca0" fill-rule="evenodd"></path></g></svg>